<mxfile host="app.diagrams.net" modified="2023-11-23T14:03:34.266Z" agent="Mozilla/5.0 (Windows NT 10.0; Win64; x64) AppleWebKit/537.36 (KHTML, like Gecko) Chrome/119.0.0.0 Safari/537.36" etag="nopHnNhNy6kwGRr-mbey" version="22.1.3" type="github">
  <diagram name="第 1 页" id="gaFfF_mDjwk7JS_uykfW">
    <mxGraphModel dx="14296" dy="5936" grid="0" gridSize="10" guides="1" tooltips="1" connect="1" arrows="1" fold="1" page="0" pageScale="1" pageWidth="827" pageHeight="1169" math="0" shadow="0">
      <root>
        <mxCell id="0" />
        <mxCell id="1" parent="0" />
        <mxCell id="HMkb-jYR5Unx9Mky4R0m-134" value="" style="ellipse;whiteSpace=wrap;html=1;fontFamily=Helvetica;fontSize=11;fontColor=#ffffff;strokeColor=#3700CC;strokeWidth=2;fillColor=none;" vertex="1" parent="1">
          <mxGeometry x="-2901" y="1455" width="238" height="506" as="geometry" />
        </mxCell>
        <mxCell id="HMkb-jYR5Unx9Mky4R0m-133" value="" style="ellipse;whiteSpace=wrap;html=1;fontFamily=Helvetica;fontSize=11;fontColor=default;strokeColor=#00994D;strokeWidth=2;" vertex="1" parent="1">
          <mxGeometry x="-2901" y="636" width="238" height="506" as="geometry" />
        </mxCell>
        <mxCell id="HMkb-jYR5Unx9Mky4R0m-95" value="" style="ellipse;whiteSpace=wrap;html=1;fontFamily=Helvetica;fontSize=11;fillColor=#fff2cc;strokeColor=#d6b656;" vertex="1" parent="1">
          <mxGeometry x="-5437" y="-1496" width="466" height="490" as="geometry" />
        </mxCell>
        <mxCell id="HMkb-jYR5Unx9Mky4R0m-28" style="edgeStyle=none;shape=connector;rounded=0;orthogonalLoop=1;jettySize=auto;html=1;entryX=0;entryY=0.5;entryDx=0;entryDy=0;labelBackgroundColor=default;strokeColor=default;strokeWidth=2;align=center;verticalAlign=middle;fontFamily=Helvetica;fontSize=11;fontColor=default;endArrow=classicThin;endFill=1;startArrow=none;startFill=0;endSize=30;startSize=16;" edge="1" parent="1" source="HMkb-jYR5Unx9Mky4R0m-12" target="HMkb-jYR5Unx9Mky4R0m-15">
          <mxGeometry relative="1" as="geometry" />
        </mxCell>
        <mxCell id="HMkb-jYR5Unx9Mky4R0m-29" style="edgeStyle=none;shape=connector;rounded=0;orthogonalLoop=1;jettySize=auto;html=1;entryX=0;entryY=0.5;entryDx=0;entryDy=0;labelBackgroundColor=default;strokeColor=default;strokeWidth=2;align=center;verticalAlign=middle;fontFamily=Helvetica;fontSize=11;fontColor=default;startArrow=none;startFill=0;endArrow=classicThin;endFill=1;startSize=16;endSize=30;" edge="1" parent="1" source="HMkb-jYR5Unx9Mky4R0m-12" target="HMkb-jYR5Unx9Mky4R0m-16">
          <mxGeometry relative="1" as="geometry" />
        </mxCell>
        <mxCell id="HMkb-jYR5Unx9Mky4R0m-66" style="edgeStyle=none;shape=connector;rounded=0;orthogonalLoop=1;jettySize=auto;html=1;entryX=0;entryY=0;entryDx=0;entryDy=0;labelBackgroundColor=default;strokeColor=default;strokeWidth=2;align=center;verticalAlign=middle;fontFamily=Helvetica;fontSize=11;fontColor=default;startArrow=none;startFill=0;endArrow=classicThin;endFill=1;startSize=16;endSize=30;" edge="1" parent="1" source="HMkb-jYR5Unx9Mky4R0m-12" target="HMkb-jYR5Unx9Mky4R0m-17">
          <mxGeometry relative="1" as="geometry" />
        </mxCell>
        <mxCell id="HMkb-jYR5Unx9Mky4R0m-12" value="" style="shape=mxgraph.signs.transportation.car_4;html=1;pointerEvents=1;fillColor=#008a00;strokeColor=#005700;verticalLabelPosition=bottom;verticalAlign=top;align=center;fontColor=#ffffff;" vertex="1" parent="1">
          <mxGeometry x="-6189" y="-2670" width="98" height="86" as="geometry" />
        </mxCell>
        <mxCell id="HMkb-jYR5Unx9Mky4R0m-30" style="edgeStyle=none;shape=connector;rounded=0;orthogonalLoop=1;jettySize=auto;html=1;entryX=0;entryY=0.5;entryDx=0;entryDy=0;labelBackgroundColor=default;strokeColor=default;strokeWidth=2;align=center;verticalAlign=middle;fontFamily=Helvetica;fontSize=11;fontColor=default;startArrow=none;startFill=0;endArrow=classicThin;endFill=1;startSize=16;endSize=30;" edge="1" parent="1" source="HMkb-jYR5Unx9Mky4R0m-13" target="HMkb-jYR5Unx9Mky4R0m-17">
          <mxGeometry relative="1" as="geometry" />
        </mxCell>
        <mxCell id="HMkb-jYR5Unx9Mky4R0m-31" style="edgeStyle=none;shape=connector;rounded=0;orthogonalLoop=1;jettySize=auto;html=1;entryX=0;entryY=0;entryDx=0;entryDy=0;labelBackgroundColor=default;strokeColor=default;strokeWidth=2;align=center;verticalAlign=middle;fontFamily=Helvetica;fontSize=11;fontColor=default;startArrow=none;startFill=0;endArrow=classicThin;endFill=1;startSize=16;endSize=30;" edge="1" parent="1" source="HMkb-jYR5Unx9Mky4R0m-13" target="HMkb-jYR5Unx9Mky4R0m-19">
          <mxGeometry relative="1" as="geometry" />
        </mxCell>
        <mxCell id="HMkb-jYR5Unx9Mky4R0m-13" value="" style="shape=mxgraph.signs.transportation.car_4;html=1;pointerEvents=1;fillColor=#1ba1e2;strokeColor=#006EAF;verticalLabelPosition=bottom;verticalAlign=top;align=center;fontColor=#ffffff;" vertex="1" parent="1">
          <mxGeometry x="-6179" y="-2387" width="98" height="86" as="geometry" />
        </mxCell>
        <mxCell id="HMkb-jYR5Unx9Mky4R0m-32" style="edgeStyle=none;shape=connector;rounded=0;orthogonalLoop=1;jettySize=auto;html=1;entryX=0;entryY=0.5;entryDx=0;entryDy=0;labelBackgroundColor=default;strokeColor=default;strokeWidth=2;align=center;verticalAlign=middle;fontFamily=Helvetica;fontSize=11;fontColor=default;startArrow=none;startFill=0;endArrow=classicThin;endFill=1;startSize=16;endSize=30;" edge="1" parent="1" source="HMkb-jYR5Unx9Mky4R0m-14" target="HMkb-jYR5Unx9Mky4R0m-18">
          <mxGeometry relative="1" as="geometry" />
        </mxCell>
        <mxCell id="HMkb-jYR5Unx9Mky4R0m-33" style="edgeStyle=none;shape=connector;rounded=0;orthogonalLoop=1;jettySize=auto;html=1;entryX=0;entryY=1;entryDx=0;entryDy=0;labelBackgroundColor=default;strokeColor=default;strokeWidth=2;align=center;verticalAlign=middle;fontFamily=Helvetica;fontSize=11;fontColor=default;startArrow=none;startFill=0;endArrow=classicThin;endFill=1;startSize=16;endSize=30;" edge="1" parent="1" source="HMkb-jYR5Unx9Mky4R0m-14" target="HMkb-jYR5Unx9Mky4R0m-17">
          <mxGeometry relative="1" as="geometry" />
        </mxCell>
        <mxCell id="HMkb-jYR5Unx9Mky4R0m-14" value="" style="shape=mxgraph.signs.transportation.car_4;html=1;pointerEvents=1;fillColor=#a20025;strokeColor=#6F0000;verticalLabelPosition=bottom;verticalAlign=top;align=center;fontColor=#ffffff;" vertex="1" parent="1">
          <mxGeometry x="-6189" y="-2104" width="98" height="86" as="geometry" />
        </mxCell>
        <mxCell id="HMkb-jYR5Unx9Mky4R0m-27" style="edgeStyle=none;shape=connector;rounded=0;orthogonalLoop=1;jettySize=auto;html=1;entryX=1;entryY=0;entryDx=0;entryDy=0;dashed=1;labelBackgroundColor=default;strokeColor=default;strokeWidth=2;align=center;verticalAlign=middle;fontFamily=Helvetica;fontSize=11;fontColor=default;endArrow=none;endFill=0;" edge="1" parent="1" source="HMkb-jYR5Unx9Mky4R0m-15" target="HMkb-jYR5Unx9Mky4R0m-17">
          <mxGeometry relative="1" as="geometry" />
        </mxCell>
        <mxCell id="HMkb-jYR5Unx9Mky4R0m-15" value="" style="ellipse;whiteSpace=wrap;html=1;aspect=fixed;fillColor=#d5e8d4;strokeColor=#82b366;" vertex="1" parent="1">
          <mxGeometry x="-5360" y="-2770" width="65" height="65" as="geometry" />
        </mxCell>
        <mxCell id="HMkb-jYR5Unx9Mky4R0m-26" style="edgeStyle=none;shape=connector;rounded=0;orthogonalLoop=1;jettySize=auto;html=1;entryX=1;entryY=1;entryDx=0;entryDy=0;dashed=1;labelBackgroundColor=default;strokeColor=default;strokeWidth=2;align=center;verticalAlign=middle;fontFamily=Helvetica;fontSize=11;fontColor=default;endArrow=none;endFill=0;" edge="1" parent="1" source="HMkb-jYR5Unx9Mky4R0m-16" target="HMkb-jYR5Unx9Mky4R0m-15">
          <mxGeometry relative="1" as="geometry" />
        </mxCell>
        <mxCell id="HMkb-jYR5Unx9Mky4R0m-16" value="" style="ellipse;whiteSpace=wrap;html=1;aspect=fixed;fillColor=#d5e8d4;strokeColor=#82b366;" vertex="1" parent="1">
          <mxGeometry x="-5153" y="-2623" width="65" height="65" as="geometry" />
        </mxCell>
        <mxCell id="HMkb-jYR5Unx9Mky4R0m-17" value="" style="ellipse;whiteSpace=wrap;html=1;aspect=fixed;fillColor=#d5e8d4;strokeColor=#82b366;" vertex="1" parent="1">
          <mxGeometry x="-5370" y="-2453" width="65" height="65" as="geometry" />
        </mxCell>
        <mxCell id="HMkb-jYR5Unx9Mky4R0m-24" style="edgeStyle=none;shape=connector;rounded=0;orthogonalLoop=1;jettySize=auto;html=1;entryX=1;entryY=0.5;entryDx=0;entryDy=0;dashed=1;labelBackgroundColor=default;strokeColor=default;strokeWidth=2;align=center;verticalAlign=middle;fontFamily=Helvetica;fontSize=11;fontColor=default;endArrow=none;endFill=0;" edge="1" parent="1" source="HMkb-jYR5Unx9Mky4R0m-18" target="HMkb-jYR5Unx9Mky4R0m-17">
          <mxGeometry relative="1" as="geometry" />
        </mxCell>
        <mxCell id="HMkb-jYR5Unx9Mky4R0m-25" style="edgeStyle=none;shape=connector;rounded=0;orthogonalLoop=1;jettySize=auto;html=1;entryX=0.5;entryY=1;entryDx=0;entryDy=0;dashed=1;labelBackgroundColor=default;strokeColor=default;strokeWidth=2;align=center;verticalAlign=middle;fontFamily=Helvetica;fontSize=11;fontColor=default;endArrow=none;endFill=0;" edge="1" parent="1" source="HMkb-jYR5Unx9Mky4R0m-18" target="HMkb-jYR5Unx9Mky4R0m-16">
          <mxGeometry relative="1" as="geometry" />
        </mxCell>
        <mxCell id="HMkb-jYR5Unx9Mky4R0m-18" value="" style="ellipse;whiteSpace=wrap;html=1;aspect=fixed;fillColor=#d5e8d4;strokeColor=#82b366;" vertex="1" parent="1">
          <mxGeometry x="-5160" y="-2280" width="65" height="65" as="geometry" />
        </mxCell>
        <mxCell id="HMkb-jYR5Unx9Mky4R0m-21" style="rounded=0;orthogonalLoop=1;jettySize=auto;html=1;entryX=0.5;entryY=1;entryDx=0;entryDy=0;endArrow=none;endFill=0;strokeWidth=2;dashed=1;" edge="1" parent="1" source="HMkb-jYR5Unx9Mky4R0m-19" target="HMkb-jYR5Unx9Mky4R0m-17">
          <mxGeometry relative="1" as="geometry" />
        </mxCell>
        <mxCell id="HMkb-jYR5Unx9Mky4R0m-22" style="edgeStyle=none;shape=connector;rounded=0;orthogonalLoop=1;jettySize=auto;html=1;entryX=0;entryY=0.5;entryDx=0;entryDy=0;dashed=1;labelBackgroundColor=default;strokeColor=default;strokeWidth=2;align=center;verticalAlign=middle;fontFamily=Helvetica;fontSize=11;fontColor=default;endArrow=none;endFill=0;" edge="1" parent="1" source="HMkb-jYR5Unx9Mky4R0m-19" target="HMkb-jYR5Unx9Mky4R0m-20">
          <mxGeometry relative="1" as="geometry" />
        </mxCell>
        <mxCell id="HMkb-jYR5Unx9Mky4R0m-19" value="" style="ellipse;whiteSpace=wrap;html=1;aspect=fixed;fillColor=#d5e8d4;strokeColor=#82b366;" vertex="1" parent="1">
          <mxGeometry x="-5497" y="-2070" width="65" height="65" as="geometry" />
        </mxCell>
        <mxCell id="HMkb-jYR5Unx9Mky4R0m-23" style="edgeStyle=none;shape=connector;rounded=0;orthogonalLoop=1;jettySize=auto;html=1;entryX=1;entryY=1;entryDx=0;entryDy=0;dashed=1;labelBackgroundColor=default;strokeColor=default;strokeWidth=2;align=center;verticalAlign=middle;fontFamily=Helvetica;fontSize=11;fontColor=default;endArrow=none;endFill=0;" edge="1" parent="1" source="HMkb-jYR5Unx9Mky4R0m-20" target="HMkb-jYR5Unx9Mky4R0m-18">
          <mxGeometry relative="1" as="geometry" />
        </mxCell>
        <mxCell id="HMkb-jYR5Unx9Mky4R0m-20" value="" style="ellipse;whiteSpace=wrap;html=1;aspect=fixed;fillColor=#d5e8d4;strokeColor=#82b366;" vertex="1" parent="1">
          <mxGeometry x="-5037" y="-2023" width="65" height="65" as="geometry" />
        </mxCell>
        <mxCell id="HMkb-jYR5Unx9Mky4R0m-34" value="" style="shape=mxgraph.signs.people.man_1;html=1;pointerEvents=1;fillColor=#000000;strokeColor=#6D1F00;verticalLabelPosition=bottom;verticalAlign=top;align=center;fontFamily=Helvetica;fontSize=11;fontColor=#ffffff;" vertex="1" parent="1">
          <mxGeometry x="-6701" y="-2674" width="50" height="100" as="geometry" />
        </mxCell>
        <mxCell id="HMkb-jYR5Unx9Mky4R0m-35" value="" style="shape=mxgraph.signs.people.man_1;html=1;pointerEvents=1;fillColor=#000000;strokeColor=#6D1F00;verticalLabelPosition=bottom;verticalAlign=top;align=center;fontFamily=Helvetica;fontSize=11;fontColor=#ffffff;" vertex="1" parent="1">
          <mxGeometry x="-6701" y="-2211" width="50" height="100" as="geometry" />
        </mxCell>
        <mxCell id="HMkb-jYR5Unx9Mky4R0m-36" style="edgeStyle=none;shape=connector;rounded=0;orthogonalLoop=1;jettySize=auto;html=1;entryX=0;entryY=0.5;entryDx=0;entryDy=0;entryPerimeter=0;labelBackgroundColor=default;strokeColor=default;strokeWidth=2;align=center;verticalAlign=middle;fontFamily=Helvetica;fontSize=11;fontColor=default;startArrow=none;startFill=0;endArrow=classicThin;endFill=1;startSize=16;endSize=30;" edge="1" parent="1" source="HMkb-jYR5Unx9Mky4R0m-35" target="HMkb-jYR5Unx9Mky4R0m-13">
          <mxGeometry relative="1" as="geometry" />
        </mxCell>
        <mxCell id="HMkb-jYR5Unx9Mky4R0m-37" style="edgeStyle=none;shape=connector;rounded=0;orthogonalLoop=1;jettySize=auto;html=1;entryX=0;entryY=0.5;entryDx=0;entryDy=0;entryPerimeter=0;labelBackgroundColor=default;strokeColor=default;strokeWidth=2;align=center;verticalAlign=middle;fontFamily=Helvetica;fontSize=11;fontColor=default;startArrow=none;startFill=0;endArrow=classicThin;endFill=1;startSize=16;endSize=30;" edge="1" parent="1" source="HMkb-jYR5Unx9Mky4R0m-35" target="HMkb-jYR5Unx9Mky4R0m-14">
          <mxGeometry relative="1" as="geometry" />
        </mxCell>
        <mxCell id="HMkb-jYR5Unx9Mky4R0m-38" style="edgeStyle=none;shape=connector;rounded=0;orthogonalLoop=1;jettySize=auto;html=1;entryX=0;entryY=0.5;entryDx=0;entryDy=0;entryPerimeter=0;labelBackgroundColor=default;strokeColor=default;strokeWidth=2;align=center;verticalAlign=middle;fontFamily=Helvetica;fontSize=11;fontColor=default;startArrow=none;startFill=0;endArrow=classicThin;endFill=1;startSize=16;endSize=30;" edge="1" parent="1" source="HMkb-jYR5Unx9Mky4R0m-34" target="HMkb-jYR5Unx9Mky4R0m-12">
          <mxGeometry relative="1" as="geometry" />
        </mxCell>
        <mxCell id="HMkb-jYR5Unx9Mky4R0m-96" style="edgeStyle=none;shape=connector;rounded=0;orthogonalLoop=1;jettySize=auto;html=1;entryX=0;entryY=0.5;entryDx=0;entryDy=0;labelBackgroundColor=default;strokeColor=default;strokeWidth=2;align=center;verticalAlign=middle;fontFamily=Helvetica;fontSize=11;fontColor=default;startArrow=none;startFill=0;endArrow=classicThin;endFill=1;startSize=16;endSize=30;" edge="1" parent="1" source="HMkb-jYR5Unx9Mky4R0m-70" target="HMkb-jYR5Unx9Mky4R0m-95">
          <mxGeometry relative="1" as="geometry" />
        </mxCell>
        <mxCell id="HMkb-jYR5Unx9Mky4R0m-70" value="" style="shape=mxgraph.signs.transportation.car_4;html=1;pointerEvents=1;fillColor=#008a00;strokeColor=#005700;verticalLabelPosition=bottom;verticalAlign=top;align=center;fontColor=#ffffff;" vertex="1" parent="1">
          <mxGeometry x="-6149" y="-1343" width="98" height="86" as="geometry" />
        </mxCell>
        <mxCell id="HMkb-jYR5Unx9Mky4R0m-73" value="" style="shape=mxgraph.signs.transportation.car_4;html=1;pointerEvents=1;fillColor=#1ba1e2;strokeColor=#006EAF;verticalLabelPosition=bottom;verticalAlign=top;align=center;fontColor=#ffffff;" vertex="1" parent="1">
          <mxGeometry x="-6139" y="-1060" width="98" height="86" as="geometry" />
        </mxCell>
        <mxCell id="HMkb-jYR5Unx9Mky4R0m-76" value="" style="shape=mxgraph.signs.transportation.car_4;html=1;pointerEvents=1;fillColor=#a20025;strokeColor=#6F0000;verticalLabelPosition=bottom;verticalAlign=top;align=center;fontColor=#ffffff;" vertex="1" parent="1">
          <mxGeometry x="-6149" y="-777" width="98" height="86" as="geometry" />
        </mxCell>
        <mxCell id="HMkb-jYR5Unx9Mky4R0m-77" style="edgeStyle=none;shape=connector;rounded=0;orthogonalLoop=1;jettySize=auto;html=1;entryX=0.5;entryY=0;entryDx=0;entryDy=0;dashed=1;labelBackgroundColor=default;strokeColor=default;strokeWidth=2;align=center;verticalAlign=middle;fontFamily=Helvetica;fontSize=11;fontColor=default;endArrow=none;endFill=0;" edge="1" parent="1" source="HMkb-jYR5Unx9Mky4R0m-78" target="HMkb-jYR5Unx9Mky4R0m-81">
          <mxGeometry relative="1" as="geometry" />
        </mxCell>
        <mxCell id="HMkb-jYR5Unx9Mky4R0m-78" value="" style="ellipse;whiteSpace=wrap;html=1;aspect=fixed;fillColor=#d5e8d4;strokeColor=#82b366;" vertex="1" parent="1">
          <mxGeometry x="-5320" y="-1443" width="65" height="65" as="geometry" />
        </mxCell>
        <mxCell id="HMkb-jYR5Unx9Mky4R0m-79" style="edgeStyle=none;shape=connector;rounded=0;orthogonalLoop=1;jettySize=auto;html=1;entryX=1;entryY=1;entryDx=0;entryDy=0;dashed=1;labelBackgroundColor=default;strokeColor=default;strokeWidth=2;align=center;verticalAlign=middle;fontFamily=Helvetica;fontSize=11;fontColor=default;endArrow=none;endFill=0;" edge="1" parent="1" source="HMkb-jYR5Unx9Mky4R0m-80" target="HMkb-jYR5Unx9Mky4R0m-78">
          <mxGeometry relative="1" as="geometry" />
        </mxCell>
        <mxCell id="HMkb-jYR5Unx9Mky4R0m-97" style="edgeStyle=orthogonalEdgeStyle;shape=connector;rounded=0;orthogonalLoop=1;jettySize=auto;html=1;entryX=1;entryY=1;entryDx=0;entryDy=0;labelBackgroundColor=default;strokeColor=#CC0000;strokeWidth=2;align=center;verticalAlign=middle;fontFamily=Helvetica;fontSize=11;fontColor=default;startArrow=none;startFill=0;endArrow=classicThin;endFill=1;startSize=16;endSize=30;curved=1;" edge="1" parent="1" source="HMkb-jYR5Unx9Mky4R0m-80" target="HMkb-jYR5Unx9Mky4R0m-78">
          <mxGeometry relative="1" as="geometry">
            <Array as="points">
              <mxPoint x="-5102" y="-1387" />
            </Array>
          </mxGeometry>
        </mxCell>
        <mxCell id="HMkb-jYR5Unx9Mky4R0m-80" value="" style="ellipse;whiteSpace=wrap;html=1;aspect=fixed;fillColor=#d5e8d4;strokeColor=#82b366;" vertex="1" parent="1">
          <mxGeometry x="-5113" y="-1296" width="65" height="65" as="geometry" />
        </mxCell>
        <mxCell id="HMkb-jYR5Unx9Mky4R0m-81" value="" style="ellipse;whiteSpace=wrap;html=1;aspect=fixed;fillColor=#d5e8d4;strokeColor=#82b366;" vertex="1" parent="1">
          <mxGeometry x="-5330" y="-1126" width="65" height="65" as="geometry" />
        </mxCell>
        <mxCell id="HMkb-jYR5Unx9Mky4R0m-82" style="edgeStyle=none;shape=connector;rounded=0;orthogonalLoop=1;jettySize=auto;html=1;entryX=1;entryY=0.5;entryDx=0;entryDy=0;dashed=1;labelBackgroundColor=default;strokeColor=default;strokeWidth=2;align=center;verticalAlign=middle;fontFamily=Helvetica;fontSize=11;fontColor=default;endArrow=none;endFill=0;" edge="1" parent="1" source="HMkb-jYR5Unx9Mky4R0m-84" target="HMkb-jYR5Unx9Mky4R0m-81">
          <mxGeometry relative="1" as="geometry" />
        </mxCell>
        <mxCell id="HMkb-jYR5Unx9Mky4R0m-83" style="edgeStyle=none;shape=connector;rounded=0;orthogonalLoop=1;jettySize=auto;html=1;entryX=0.5;entryY=1;entryDx=0;entryDy=0;dashed=1;labelBackgroundColor=default;strokeColor=default;strokeWidth=2;align=center;verticalAlign=middle;fontFamily=Helvetica;fontSize=11;fontColor=default;endArrow=none;endFill=0;" edge="1" parent="1" source="HMkb-jYR5Unx9Mky4R0m-84" target="HMkb-jYR5Unx9Mky4R0m-80">
          <mxGeometry relative="1" as="geometry" />
        </mxCell>
        <mxCell id="HMkb-jYR5Unx9Mky4R0m-84" value="" style="ellipse;whiteSpace=wrap;html=1;aspect=fixed;fillColor=#d5e8d4;strokeColor=#82b366;" vertex="1" parent="1">
          <mxGeometry x="-5120" y="-953" width="65" height="65" as="geometry" />
        </mxCell>
        <mxCell id="HMkb-jYR5Unx9Mky4R0m-85" style="rounded=0;orthogonalLoop=1;jettySize=auto;html=1;entryX=0.5;entryY=1;entryDx=0;entryDy=0;endArrow=none;endFill=0;strokeWidth=2;dashed=1;" edge="1" parent="1" source="HMkb-jYR5Unx9Mky4R0m-87" target="HMkb-jYR5Unx9Mky4R0m-81">
          <mxGeometry relative="1" as="geometry" />
        </mxCell>
        <mxCell id="HMkb-jYR5Unx9Mky4R0m-86" style="edgeStyle=none;shape=connector;rounded=0;orthogonalLoop=1;jettySize=auto;html=1;entryX=0;entryY=0.5;entryDx=0;entryDy=0;dashed=1;labelBackgroundColor=default;strokeColor=default;strokeWidth=2;align=center;verticalAlign=middle;fontFamily=Helvetica;fontSize=11;fontColor=default;endArrow=none;endFill=0;" edge="1" parent="1" source="HMkb-jYR5Unx9Mky4R0m-87" target="HMkb-jYR5Unx9Mky4R0m-89">
          <mxGeometry relative="1" as="geometry" />
        </mxCell>
        <mxCell id="HMkb-jYR5Unx9Mky4R0m-87" value="" style="ellipse;whiteSpace=wrap;html=1;aspect=fixed;fillColor=#d5e8d4;strokeColor=#82b366;" vertex="1" parent="1">
          <mxGeometry x="-5457" y="-743" width="65" height="65" as="geometry" />
        </mxCell>
        <mxCell id="HMkb-jYR5Unx9Mky4R0m-88" style="edgeStyle=none;shape=connector;rounded=0;orthogonalLoop=1;jettySize=auto;html=1;entryX=1;entryY=1;entryDx=0;entryDy=0;dashed=1;labelBackgroundColor=default;strokeColor=default;strokeWidth=2;align=center;verticalAlign=middle;fontFamily=Helvetica;fontSize=11;fontColor=default;endArrow=none;endFill=0;" edge="1" parent="1" source="HMkb-jYR5Unx9Mky4R0m-89" target="HMkb-jYR5Unx9Mky4R0m-84">
          <mxGeometry relative="1" as="geometry" />
        </mxCell>
        <mxCell id="HMkb-jYR5Unx9Mky4R0m-89" value="" style="ellipse;whiteSpace=wrap;html=1;aspect=fixed;fillColor=#d5e8d4;strokeColor=#82b366;" vertex="1" parent="1">
          <mxGeometry x="-4997" y="-696" width="65" height="65" as="geometry" />
        </mxCell>
        <mxCell id="HMkb-jYR5Unx9Mky4R0m-90" value="" style="shape=mxgraph.signs.people.man_1;html=1;pointerEvents=1;fillColor=#000000;strokeColor=#6D1F00;verticalLabelPosition=bottom;verticalAlign=top;align=center;fontFamily=Helvetica;fontSize=11;fontColor=#ffffff;" vertex="1" parent="1">
          <mxGeometry x="-6661" y="-1347" width="50" height="100" as="geometry" />
        </mxCell>
        <mxCell id="HMkb-jYR5Unx9Mky4R0m-91" value="" style="shape=mxgraph.signs.people.man_1;html=1;pointerEvents=1;fillColor=#000000;strokeColor=#6D1F00;verticalLabelPosition=bottom;verticalAlign=top;align=center;fontFamily=Helvetica;fontSize=11;fontColor=#ffffff;" vertex="1" parent="1">
          <mxGeometry x="-6661" y="-884" width="50" height="100" as="geometry" />
        </mxCell>
        <mxCell id="HMkb-jYR5Unx9Mky4R0m-94" style="edgeStyle=none;shape=connector;rounded=0;orthogonalLoop=1;jettySize=auto;html=1;entryX=0;entryY=0.5;entryDx=0;entryDy=0;entryPerimeter=0;labelBackgroundColor=default;strokeColor=default;strokeWidth=2;align=center;verticalAlign=middle;fontFamily=Helvetica;fontSize=11;fontColor=default;startArrow=none;startFill=0;endArrow=classicThin;endFill=1;startSize=16;endSize=30;" edge="1" parent="1" source="HMkb-jYR5Unx9Mky4R0m-90" target="HMkb-jYR5Unx9Mky4R0m-70">
          <mxGeometry relative="1" as="geometry" />
        </mxCell>
        <mxCell id="HMkb-jYR5Unx9Mky4R0m-107" value="" style="curved=1;endArrow=classic;html=1;rounded=0;labelBackgroundColor=default;strokeColor=#CC0000;strokeWidth=2;align=center;verticalAlign=middle;fontFamily=Helvetica;fontSize=11;fontColor=default;startSize=16;endSize=30;shape=connector;entryX=0.5;entryY=0;entryDx=0;entryDy=0;exitX=0.5;exitY=1;exitDx=0;exitDy=0;" edge="1" parent="1" source="HMkb-jYR5Unx9Mky4R0m-78" target="HMkb-jYR5Unx9Mky4R0m-81">
          <mxGeometry width="50" height="50" relative="1" as="geometry">
            <mxPoint x="-5528" y="-1061" as="sourcePoint" />
            <mxPoint x="-5478" y="-1111" as="targetPoint" />
            <Array as="points">
              <mxPoint x="-5400" y="-1263" />
            </Array>
          </mxGeometry>
        </mxCell>
        <mxCell id="HMkb-jYR5Unx9Mky4R0m-108" value="" style="shape=mxgraph.signs.transportation.car_4;html=1;pointerEvents=1;fillColor=#a20025;strokeColor=#6F0000;verticalLabelPosition=bottom;verticalAlign=top;align=center;fontColor=#ffffff;" vertex="1" parent="1">
          <mxGeometry x="-6587" y="-316" width="98" height="86" as="geometry" />
        </mxCell>
        <mxCell id="HMkb-jYR5Unx9Mky4R0m-109" value="" style="shape=mxgraph.signs.transportation.car_4;html=1;pointerEvents=1;fillColor=#1ba1e2;strokeColor=#006EAF;verticalLabelPosition=bottom;verticalAlign=top;align=center;fontColor=#ffffff;" vertex="1" parent="1">
          <mxGeometry x="-6264" y="-316" width="98" height="86" as="geometry" />
        </mxCell>
        <mxCell id="HMkb-jYR5Unx9Mky4R0m-110" value="&lt;font size=&quot;1&quot; face=&quot;Times New Roman&quot;&gt;&lt;b style=&quot;font-size: 60px;&quot;&gt;car -- car : same type&lt;/b&gt;&lt;/font&gt;" style="text;html=1;strokeColor=none;fillColor=none;align=left;verticalAlign=middle;whiteSpace=wrap;rounded=0;fontSize=11;fontFamily=Helvetica;fontColor=default;" vertex="1" parent="1">
          <mxGeometry x="-7316" y="-352.25" width="595" height="158.5" as="geometry" />
        </mxCell>
        <mxCell id="HMkb-jYR5Unx9Mky4R0m-111" value="&lt;font size=&quot;1&quot; face=&quot;Times New Roman&quot;&gt;&lt;b style=&quot;font-size: 60px;&quot;&gt;car --&amp;nbsp; road: interaction&amp;nbsp;&lt;/b&gt;&lt;/font&gt;" style="text;html=1;strokeColor=none;fillColor=none;align=left;verticalAlign=middle;whiteSpace=wrap;rounded=0;fontSize=11;fontFamily=Helvetica;fontColor=default;" vertex="1" parent="1">
          <mxGeometry x="-7316" y="-102" width="655" height="158.5" as="geometry" />
        </mxCell>
        <mxCell id="HMkb-jYR5Unx9Mky4R0m-112" value="&lt;font size=&quot;1&quot; face=&quot;Times New Roman&quot;&gt;&lt;b style=&quot;font-size: 60px;&quot;&gt;car --&amp;nbsp; road -- car: driving same road&lt;/b&gt;&lt;/font&gt;" style="text;html=1;strokeColor=none;fillColor=none;align=left;verticalAlign=middle;whiteSpace=wrap;rounded=0;fontSize=11;fontFamily=Helvetica;fontColor=default;" vertex="1" parent="1">
          <mxGeometry x="-5951" y="-349" width="655" height="158.5" as="geometry" />
        </mxCell>
        <mxCell id="HMkb-jYR5Unx9Mky4R0m-113" value="&lt;font size=&quot;1&quot; face=&quot;Times New Roman&quot;&gt;&lt;b style=&quot;font-size: 60px;&quot;&gt;road -- road: spatial adjacency, similar features, same type&lt;/b&gt;&lt;/font&gt;" style="text;html=1;strokeColor=none;fillColor=none;align=left;verticalAlign=middle;whiteSpace=wrap;rounded=0;fontSize=11;fontFamily=Helvetica;fontColor=default;" vertex="1" parent="1">
          <mxGeometry x="-5951" y="-108" width="841" height="158.5" as="geometry" />
        </mxCell>
        <mxCell id="HMkb-jYR5Unx9Mky4R0m-117" style="edgeStyle=none;shape=connector;rounded=0;orthogonalLoop=1;jettySize=auto;html=1;entryX=0;entryY=0.5;entryDx=0;entryDy=0;labelBackgroundColor=default;strokeColor=default;strokeWidth=2;align=center;verticalAlign=middle;fontFamily=Helvetica;fontSize=11;fontColor=default;startArrow=none;startFill=0;endArrow=classicThin;endFill=1;startSize=16;endSize=30;" edge="1" parent="1" source="HMkb-jYR5Unx9Mky4R0m-114" target="HMkb-jYR5Unx9Mky4R0m-115">
          <mxGeometry relative="1" as="geometry" />
        </mxCell>
        <mxCell id="HMkb-jYR5Unx9Mky4R0m-114" value="" style="shape=mxgraph.signs.transportation.car_4;html=1;pointerEvents=1;fillColor=#a20025;strokeColor=#6F0000;verticalLabelPosition=bottom;verticalAlign=top;align=center;fontColor=#ffffff;" vertex="1" parent="1">
          <mxGeometry x="-6587" y="-65.75" width="98" height="86" as="geometry" />
        </mxCell>
        <mxCell id="HMkb-jYR5Unx9Mky4R0m-115" value="" style="ellipse;whiteSpace=wrap;html=1;aspect=fixed;fillColor=#d5e8d4;strokeColor=#82b366;" vertex="1" parent="1">
          <mxGeometry x="-6247.5" y="-55.25" width="65" height="65" as="geometry" />
        </mxCell>
        <mxCell id="HMkb-jYR5Unx9Mky4R0m-116" style="edgeStyle=none;shape=connector;rounded=0;orthogonalLoop=1;jettySize=auto;html=1;entryX=0;entryY=0.5;entryDx=0;entryDy=0;entryPerimeter=0;labelBackgroundColor=default;strokeColor=default;strokeWidth=2;align=center;verticalAlign=middle;fontFamily=Helvetica;fontSize=11;fontColor=default;startArrow=none;startFill=0;endArrow=none;endFill=0;startSize=16;endSize=30;" edge="1" parent="1" source="HMkb-jYR5Unx9Mky4R0m-108" target="HMkb-jYR5Unx9Mky4R0m-109">
          <mxGeometry relative="1" as="geometry" />
        </mxCell>
        <mxCell id="HMkb-jYR5Unx9Mky4R0m-118" style="edgeStyle=none;shape=connector;rounded=0;orthogonalLoop=1;jettySize=auto;html=1;entryX=0;entryY=0.5;entryDx=0;entryDy=0;labelBackgroundColor=default;strokeColor=default;strokeWidth=2;align=center;verticalAlign=middle;fontFamily=Helvetica;fontSize=11;fontColor=default;startArrow=none;startFill=0;endArrow=classicThin;endFill=1;startSize=16;endSize=30;" edge="1" parent="1" source="HMkb-jYR5Unx9Mky4R0m-119" target="HMkb-jYR5Unx9Mky4R0m-120">
          <mxGeometry relative="1" as="geometry" />
        </mxCell>
        <mxCell id="HMkb-jYR5Unx9Mky4R0m-119" value="" style="shape=mxgraph.signs.transportation.car_4;html=1;pointerEvents=1;fillColor=#a20025;strokeColor=#6F0000;verticalLabelPosition=bottom;verticalAlign=top;align=center;fontColor=#ffffff;" vertex="1" parent="1">
          <mxGeometry x="-4985" y="-312.75" width="98" height="86" as="geometry" />
        </mxCell>
        <mxCell id="HMkb-jYR5Unx9Mky4R0m-120" value="" style="ellipse;whiteSpace=wrap;html=1;aspect=fixed;fillColor=#d5e8d4;strokeColor=#82b366;" vertex="1" parent="1">
          <mxGeometry x="-4645.5" y="-302.25" width="65" height="65" as="geometry" />
        </mxCell>
        <mxCell id="HMkb-jYR5Unx9Mky4R0m-122" style="edgeStyle=none;shape=connector;rounded=0;orthogonalLoop=1;jettySize=auto;html=1;entryX=1;entryY=0.5;entryDx=0;entryDy=0;labelBackgroundColor=default;strokeColor=default;strokeWidth=2;align=center;verticalAlign=middle;fontFamily=Helvetica;fontSize=11;fontColor=default;startArrow=none;startFill=0;endArrow=classicThin;endFill=1;startSize=16;endSize=30;" edge="1" parent="1" source="HMkb-jYR5Unx9Mky4R0m-121" target="HMkb-jYR5Unx9Mky4R0m-120">
          <mxGeometry relative="1" as="geometry" />
        </mxCell>
        <mxCell id="HMkb-jYR5Unx9Mky4R0m-121" value="" style="shape=mxgraph.signs.transportation.car_4;html=1;pointerEvents=1;fillColor=#1ba1e2;strokeColor=#006EAF;verticalLabelPosition=bottom;verticalAlign=top;align=center;fontColor=#ffffff;" vertex="1" parent="1">
          <mxGeometry x="-4369" y="-312.75" width="98" height="86" as="geometry" />
        </mxCell>
        <mxCell id="HMkb-jYR5Unx9Mky4R0m-123" value="" style="ellipse;whiteSpace=wrap;html=1;aspect=fixed;fillColor=#d5e8d4;strokeColor=#82b366;" vertex="1" parent="1">
          <mxGeometry x="-4985" y="-61.25" width="65" height="65" as="geometry" />
        </mxCell>
        <mxCell id="HMkb-jYR5Unx9Mky4R0m-125" style="edgeStyle=none;shape=connector;rounded=0;orthogonalLoop=1;jettySize=auto;html=1;entryX=1;entryY=0.5;entryDx=0;entryDy=0;labelBackgroundColor=default;strokeColor=default;strokeWidth=2;align=center;verticalAlign=middle;fontFamily=Helvetica;fontSize=11;fontColor=default;startArrow=none;startFill=0;endArrow=none;endFill=0;startSize=16;endSize=30;" edge="1" parent="1" source="HMkb-jYR5Unx9Mky4R0m-124" target="HMkb-jYR5Unx9Mky4R0m-123">
          <mxGeometry relative="1" as="geometry" />
        </mxCell>
        <mxCell id="HMkb-jYR5Unx9Mky4R0m-124" value="" style="ellipse;whiteSpace=wrap;html=1;aspect=fixed;fillColor=#d5e8d4;strokeColor=#82b366;" vertex="1" parent="1">
          <mxGeometry x="-4665.5" y="-61.25" width="65" height="65" as="geometry" />
        </mxCell>
        <mxCell id="HMkb-jYR5Unx9Mky4R0m-156" style="edgeStyle=none;shape=connector;rounded=0;orthogonalLoop=1;jettySize=auto;html=1;entryX=0;entryY=0.5;entryDx=0;entryDy=0;labelBackgroundColor=default;strokeColor=default;strokeWidth=2;align=center;verticalAlign=middle;fontFamily=Helvetica;fontSize=11;fontColor=default;startArrow=none;startFill=0;endArrow=classicThin;endFill=1;startSize=16;endSize=30;" edge="1" parent="1" source="HMkb-jYR5Unx9Mky4R0m-126" target="HMkb-jYR5Unx9Mky4R0m-136">
          <mxGeometry relative="1" as="geometry" />
        </mxCell>
        <mxCell id="HMkb-jYR5Unx9Mky4R0m-157" style="edgeStyle=none;shape=connector;rounded=0;orthogonalLoop=1;jettySize=auto;html=1;entryX=0;entryY=0.5;entryDx=0;entryDy=0;labelBackgroundColor=default;strokeColor=default;strokeWidth=2;align=center;verticalAlign=middle;fontFamily=Helvetica;fontSize=11;fontColor=default;startArrow=none;startFill=0;endArrow=classicThin;endFill=1;startSize=16;endSize=30;" edge="1" parent="1" source="HMkb-jYR5Unx9Mky4R0m-126" target="HMkb-jYR5Unx9Mky4R0m-139">
          <mxGeometry relative="1" as="geometry" />
        </mxCell>
        <mxCell id="HMkb-jYR5Unx9Mky4R0m-158" style="edgeStyle=none;shape=connector;rounded=0;orthogonalLoop=1;jettySize=auto;html=1;entryX=0;entryY=0.5;entryDx=0;entryDy=0;labelBackgroundColor=default;strokeColor=default;strokeWidth=2;align=center;verticalAlign=middle;fontFamily=Helvetica;fontSize=11;fontColor=default;startArrow=none;startFill=0;endArrow=classicThin;endFill=1;startSize=16;endSize=30;" edge="1" parent="1" source="HMkb-jYR5Unx9Mky4R0m-126" target="HMkb-jYR5Unx9Mky4R0m-138">
          <mxGeometry relative="1" as="geometry" />
        </mxCell>
        <mxCell id="HMkb-jYR5Unx9Mky4R0m-126" value="" style="shape=mxgraph.signs.transportation.car_4;html=1;pointerEvents=1;fillColor=#008a00;strokeColor=#005700;verticalLabelPosition=bottom;verticalAlign=top;align=center;fontColor=#ffffff;" vertex="1" parent="1">
          <mxGeometry x="-2831" y="703" width="98" height="86" as="geometry" />
        </mxCell>
        <mxCell id="HMkb-jYR5Unx9Mky4R0m-159" style="edgeStyle=none;shape=connector;rounded=0;orthogonalLoop=1;jettySize=auto;html=1;entryX=0;entryY=0.5;entryDx=0;entryDy=0;labelBackgroundColor=default;strokeColor=default;strokeWidth=2;align=center;verticalAlign=middle;fontFamily=Helvetica;fontSize=11;fontColor=default;startArrow=none;startFill=0;endArrow=classicThin;endFill=1;startSize=16;endSize=30;" edge="1" parent="1" source="HMkb-jYR5Unx9Mky4R0m-127" target="HMkb-jYR5Unx9Mky4R0m-145">
          <mxGeometry relative="1" as="geometry" />
        </mxCell>
        <mxCell id="HMkb-jYR5Unx9Mky4R0m-160" style="edgeStyle=none;shape=connector;rounded=0;orthogonalLoop=1;jettySize=auto;html=1;entryX=0;entryY=0;entryDx=0;entryDy=0;labelBackgroundColor=default;strokeColor=default;strokeWidth=2;align=center;verticalAlign=middle;fontFamily=Helvetica;fontSize=11;fontColor=default;startArrow=none;startFill=0;endArrow=classicThin;endFill=1;startSize=16;endSize=30;" edge="1" parent="1" source="HMkb-jYR5Unx9Mky4R0m-127" target="HMkb-jYR5Unx9Mky4R0m-147">
          <mxGeometry relative="1" as="geometry" />
        </mxCell>
        <mxCell id="HMkb-jYR5Unx9Mky4R0m-127" value="" style="shape=mxgraph.signs.transportation.car_4;html=1;pointerEvents=1;fillColor=#008a00;strokeColor=#005700;verticalLabelPosition=bottom;verticalAlign=top;align=center;fontColor=#ffffff;" vertex="1" parent="1">
          <mxGeometry x="-2831" y="986" width="98" height="86" as="geometry" />
        </mxCell>
        <mxCell id="HMkb-jYR5Unx9Mky4R0m-163" style="edgeStyle=none;shape=connector;rounded=0;orthogonalLoop=1;jettySize=auto;html=1;entryX=0;entryY=0.5;entryDx=0;entryDy=0;labelBackgroundColor=default;strokeColor=default;strokeWidth=2;align=center;verticalAlign=middle;fontFamily=Helvetica;fontSize=11;fontColor=default;startArrow=none;startFill=0;endArrow=classicThin;endFill=1;startSize=16;endSize=30;" edge="1" parent="1" source="HMkb-jYR5Unx9Mky4R0m-128" target="HMkb-jYR5Unx9Mky4R0m-145">
          <mxGeometry relative="1" as="geometry" />
        </mxCell>
        <mxCell id="HMkb-jYR5Unx9Mky4R0m-164" style="edgeStyle=none;shape=connector;rounded=0;orthogonalLoop=1;jettySize=auto;html=1;entryX=0.5;entryY=0;entryDx=0;entryDy=0;labelBackgroundColor=default;strokeColor=default;strokeWidth=2;align=center;verticalAlign=middle;fontFamily=Helvetica;fontSize=11;fontColor=default;startArrow=none;startFill=0;endArrow=classicThin;endFill=1;startSize=16;endSize=30;" edge="1" parent="1" source="HMkb-jYR5Unx9Mky4R0m-128" target="HMkb-jYR5Unx9Mky4R0m-150">
          <mxGeometry relative="1" as="geometry" />
        </mxCell>
        <mxCell id="HMkb-jYR5Unx9Mky4R0m-128" value="" style="shape=mxgraph.signs.transportation.car_4;html=1;pointerEvents=1;fillColor=#a20025;strokeColor=#6F0000;verticalLabelPosition=bottom;verticalAlign=top;align=center;fontColor=#ffffff;" vertex="1" parent="1">
          <mxGeometry x="-2831" y="1266" width="98" height="86" as="geometry" />
        </mxCell>
        <mxCell id="HMkb-jYR5Unx9Mky4R0m-161" style="edgeStyle=none;shape=connector;rounded=0;orthogonalLoop=1;jettySize=auto;html=1;labelBackgroundColor=default;strokeColor=default;strokeWidth=2;align=center;verticalAlign=middle;fontFamily=Helvetica;fontSize=11;fontColor=default;startArrow=none;startFill=0;endArrow=classicThin;endFill=1;startSize=16;endSize=30;" edge="1" parent="1" source="HMkb-jYR5Unx9Mky4R0m-129" target="HMkb-jYR5Unx9Mky4R0m-148">
          <mxGeometry relative="1" as="geometry">
            <mxPoint x="-1751" y="1593.5714285714294" as="targetPoint" />
          </mxGeometry>
        </mxCell>
        <mxCell id="HMkb-jYR5Unx9Mky4R0m-162" style="edgeStyle=none;shape=connector;rounded=0;orthogonalLoop=1;jettySize=auto;html=1;entryX=0;entryY=0;entryDx=0;entryDy=0;labelBackgroundColor=default;strokeColor=default;strokeWidth=2;align=center;verticalAlign=middle;fontFamily=Helvetica;fontSize=11;fontColor=default;startArrow=none;startFill=0;endArrow=classicThin;endFill=1;startSize=16;endSize=30;" edge="1" parent="1" source="HMkb-jYR5Unx9Mky4R0m-129" target="HMkb-jYR5Unx9Mky4R0m-150">
          <mxGeometry relative="1" as="geometry" />
        </mxCell>
        <mxCell id="HMkb-jYR5Unx9Mky4R0m-129" value="" style="shape=mxgraph.signs.transportation.car_4;html=1;pointerEvents=1;fillColor=#4C0099;strokeColor=#6F0000;verticalLabelPosition=bottom;verticalAlign=top;align=center;fontColor=#ffffff;" vertex="1" parent="1">
          <mxGeometry x="-2831" y="1534" width="98" height="86" as="geometry" />
        </mxCell>
        <mxCell id="HMkb-jYR5Unx9Mky4R0m-165" style="edgeStyle=none;shape=connector;rounded=0;orthogonalLoop=1;jettySize=auto;html=1;entryX=0;entryY=0.5;entryDx=0;entryDy=0;labelBackgroundColor=default;strokeColor=default;strokeWidth=2;align=center;verticalAlign=middle;fontFamily=Helvetica;fontSize=11;fontColor=default;startArrow=none;startFill=0;endArrow=classicThin;endFill=1;startSize=16;endSize=30;" edge="1" parent="1" source="HMkb-jYR5Unx9Mky4R0m-130" target="HMkb-jYR5Unx9Mky4R0m-150">
          <mxGeometry relative="1" as="geometry" />
        </mxCell>
        <mxCell id="HMkb-jYR5Unx9Mky4R0m-130" value="" style="shape=mxgraph.signs.transportation.car_4;html=1;pointerEvents=1;fillColor=#4C0099;strokeColor=#6F0000;verticalLabelPosition=bottom;verticalAlign=top;align=center;fontColor=#ffffff;" vertex="1" parent="1">
          <mxGeometry x="-2831" y="1787" width="98" height="86" as="geometry" />
        </mxCell>
        <mxCell id="HMkb-jYR5Unx9Mky4R0m-131" style="edgeStyle=none;shape=connector;rounded=0;orthogonalLoop=1;jettySize=auto;html=1;entryX=0.5;entryY=0;entryDx=0;entryDy=0;entryPerimeter=0;labelBackgroundColor=default;strokeColor=default;strokeWidth=2;align=center;verticalAlign=middle;fontFamily=Helvetica;fontSize=11;fontColor=default;startArrow=none;startFill=0;endArrow=none;endFill=0;startSize=16;endSize=30;" edge="1" parent="1" source="HMkb-jYR5Unx9Mky4R0m-129" target="HMkb-jYR5Unx9Mky4R0m-130">
          <mxGeometry relative="1" as="geometry" />
        </mxCell>
        <mxCell id="HMkb-jYR5Unx9Mky4R0m-132" style="edgeStyle=none;shape=connector;rounded=0;orthogonalLoop=1;jettySize=auto;html=1;entryX=0.5;entryY=0;entryDx=0;entryDy=0;entryPerimeter=0;labelBackgroundColor=default;strokeColor=default;strokeWidth=2;align=center;verticalAlign=middle;fontFamily=Helvetica;fontSize=11;fontColor=default;startArrow=none;startFill=0;endArrow=none;endFill=0;startSize=16;endSize=30;" edge="1" parent="1" source="HMkb-jYR5Unx9Mky4R0m-126" target="HMkb-jYR5Unx9Mky4R0m-127">
          <mxGeometry relative="1" as="geometry" />
        </mxCell>
        <mxCell id="HMkb-jYR5Unx9Mky4R0m-135" style="edgeStyle=none;shape=connector;rounded=0;orthogonalLoop=1;jettySize=auto;html=1;entryX=1;entryY=0;entryDx=0;entryDy=0;dashed=1;labelBackgroundColor=default;strokeColor=default;strokeWidth=2;align=center;verticalAlign=middle;fontFamily=Helvetica;fontSize=11;fontColor=default;endArrow=none;endFill=0;" edge="1" parent="1" source="HMkb-jYR5Unx9Mky4R0m-136" target="HMkb-jYR5Unx9Mky4R0m-139">
          <mxGeometry relative="1" as="geometry" />
        </mxCell>
        <mxCell id="HMkb-jYR5Unx9Mky4R0m-136" value="" style="ellipse;whiteSpace=wrap;html=1;aspect=fixed;fillColor=#d5e8d4;strokeColor=#82b366;" vertex="1" parent="1">
          <mxGeometry x="-2173" y="576" width="65" height="65" as="geometry" />
        </mxCell>
        <mxCell id="HMkb-jYR5Unx9Mky4R0m-137" style="edgeStyle=none;shape=connector;rounded=0;orthogonalLoop=1;jettySize=auto;html=1;entryX=1;entryY=1;entryDx=0;entryDy=0;dashed=1;labelBackgroundColor=default;strokeColor=default;strokeWidth=2;align=center;verticalAlign=middle;fontFamily=Helvetica;fontSize=11;fontColor=default;endArrow=none;endFill=0;" edge="1" parent="1" source="HMkb-jYR5Unx9Mky4R0m-138" target="HMkb-jYR5Unx9Mky4R0m-136">
          <mxGeometry relative="1" as="geometry" />
        </mxCell>
        <mxCell id="HMkb-jYR5Unx9Mky4R0m-138" value="" style="ellipse;whiteSpace=wrap;html=1;aspect=fixed;fillColor=#d5e8d4;strokeColor=#82b366;" vertex="1" parent="1">
          <mxGeometry x="-1966" y="723" width="65" height="65" as="geometry" />
        </mxCell>
        <mxCell id="HMkb-jYR5Unx9Mky4R0m-139" value="" style="ellipse;whiteSpace=wrap;html=1;aspect=fixed;fillColor=#d5e8d4;strokeColor=#82b366;" vertex="1" parent="1">
          <mxGeometry x="-2183" y="893" width="65" height="65" as="geometry" />
        </mxCell>
        <mxCell id="HMkb-jYR5Unx9Mky4R0m-140" style="edgeStyle=none;shape=connector;rounded=0;orthogonalLoop=1;jettySize=auto;html=1;entryX=1;entryY=0.5;entryDx=0;entryDy=0;dashed=1;labelBackgroundColor=default;strokeColor=default;strokeWidth=2;align=center;verticalAlign=middle;fontFamily=Helvetica;fontSize=11;fontColor=default;endArrow=none;endFill=0;" edge="1" parent="1" source="HMkb-jYR5Unx9Mky4R0m-142" target="HMkb-jYR5Unx9Mky4R0m-139">
          <mxGeometry relative="1" as="geometry" />
        </mxCell>
        <mxCell id="HMkb-jYR5Unx9Mky4R0m-141" style="edgeStyle=none;shape=connector;rounded=0;orthogonalLoop=1;jettySize=auto;html=1;entryX=0.5;entryY=1;entryDx=0;entryDy=0;dashed=1;labelBackgroundColor=default;strokeColor=default;strokeWidth=2;align=center;verticalAlign=middle;fontFamily=Helvetica;fontSize=11;fontColor=default;endArrow=none;endFill=0;" edge="1" parent="1" source="HMkb-jYR5Unx9Mky4R0m-142" target="HMkb-jYR5Unx9Mky4R0m-138">
          <mxGeometry relative="1" as="geometry" />
        </mxCell>
        <mxCell id="HMkb-jYR5Unx9Mky4R0m-142" value="" style="ellipse;whiteSpace=wrap;html=1;aspect=fixed;fillColor=#d5e8d4;strokeColor=#82b366;" vertex="1" parent="1">
          <mxGeometry x="-1973" y="1066" width="65" height="65" as="geometry" />
        </mxCell>
        <mxCell id="HMkb-jYR5Unx9Mky4R0m-143" style="rounded=0;orthogonalLoop=1;jettySize=auto;html=1;entryX=0.5;entryY=1;entryDx=0;entryDy=0;endArrow=none;endFill=0;strokeWidth=2;dashed=1;" edge="1" parent="1" source="HMkb-jYR5Unx9Mky4R0m-145" target="HMkb-jYR5Unx9Mky4R0m-139">
          <mxGeometry relative="1" as="geometry" />
        </mxCell>
        <mxCell id="HMkb-jYR5Unx9Mky4R0m-144" style="edgeStyle=none;shape=connector;rounded=0;orthogonalLoop=1;jettySize=auto;html=1;entryX=0;entryY=0.5;entryDx=0;entryDy=0;dashed=1;labelBackgroundColor=default;strokeColor=default;strokeWidth=2;align=center;verticalAlign=middle;fontFamily=Helvetica;fontSize=11;fontColor=default;endArrow=none;endFill=0;" edge="1" parent="1" source="HMkb-jYR5Unx9Mky4R0m-145" target="HMkb-jYR5Unx9Mky4R0m-147">
          <mxGeometry relative="1" as="geometry" />
        </mxCell>
        <mxCell id="HMkb-jYR5Unx9Mky4R0m-145" value="" style="ellipse;whiteSpace=wrap;html=1;aspect=fixed;fillColor=#d5e8d4;strokeColor=#82b366;" vertex="1" parent="1">
          <mxGeometry x="-2310" y="1276" width="65" height="65" as="geometry" />
        </mxCell>
        <mxCell id="HMkb-jYR5Unx9Mky4R0m-146" style="edgeStyle=none;shape=connector;rounded=0;orthogonalLoop=1;jettySize=auto;html=1;entryX=1;entryY=1;entryDx=0;entryDy=0;dashed=1;labelBackgroundColor=default;strokeColor=default;strokeWidth=2;align=center;verticalAlign=middle;fontFamily=Helvetica;fontSize=11;fontColor=default;endArrow=none;endFill=0;" edge="1" parent="1" source="HMkb-jYR5Unx9Mky4R0m-147" target="HMkb-jYR5Unx9Mky4R0m-142">
          <mxGeometry relative="1" as="geometry" />
        </mxCell>
        <mxCell id="HMkb-jYR5Unx9Mky4R0m-147" value="" style="ellipse;whiteSpace=wrap;html=1;aspect=fixed;fillColor=#d5e8d4;strokeColor=#82b366;" vertex="1" parent="1">
          <mxGeometry x="-1850" y="1323" width="65" height="65" as="geometry" />
        </mxCell>
        <mxCell id="HMkb-jYR5Unx9Mky4R0m-153" style="edgeStyle=none;shape=connector;rounded=0;orthogonalLoop=1;jettySize=auto;html=1;entryX=0.5;entryY=0;entryDx=0;entryDy=0;labelBackgroundColor=default;strokeColor=default;strokeWidth=2;align=center;verticalAlign=middle;fontFamily=Helvetica;fontSize=11;fontColor=default;startArrow=none;startFill=0;endArrow=none;endFill=0;startSize=16;endSize=30;dashed=1;" edge="1" parent="1" source="HMkb-jYR5Unx9Mky4R0m-148" target="HMkb-jYR5Unx9Mky4R0m-150">
          <mxGeometry relative="1" as="geometry" />
        </mxCell>
        <mxCell id="HMkb-jYR5Unx9Mky4R0m-155" style="edgeStyle=none;shape=connector;rounded=0;orthogonalLoop=1;jettySize=auto;html=1;entryX=0;entryY=0;entryDx=0;entryDy=0;labelBackgroundColor=default;strokeColor=default;strokeWidth=2;align=center;verticalAlign=middle;fontFamily=Helvetica;fontSize=11;fontColor=default;startArrow=none;startFill=0;endArrow=none;endFill=0;startSize=16;endSize=30;dashed=1;" edge="1" parent="1" source="HMkb-jYR5Unx9Mky4R0m-148" target="HMkb-jYR5Unx9Mky4R0m-149">
          <mxGeometry relative="1" as="geometry" />
        </mxCell>
        <mxCell id="HMkb-jYR5Unx9Mky4R0m-148" value="" style="ellipse;whiteSpace=wrap;html=1;aspect=fixed;fillColor=#d5e8d4;strokeColor=#82b366;" vertex="1" parent="1">
          <mxGeometry x="-2089" y="1547" width="65" height="65" as="geometry" />
        </mxCell>
        <mxCell id="HMkb-jYR5Unx9Mky4R0m-154" style="edgeStyle=none;shape=connector;rounded=0;orthogonalLoop=1;jettySize=auto;html=1;entryX=0.5;entryY=1;entryDx=0;entryDy=0;labelBackgroundColor=default;strokeColor=default;strokeWidth=2;align=center;verticalAlign=middle;fontFamily=Helvetica;fontSize=11;fontColor=default;startArrow=none;startFill=0;endArrow=none;endFill=0;startSize=16;endSize=30;dashed=1;" edge="1" parent="1" source="HMkb-jYR5Unx9Mky4R0m-149" target="HMkb-jYR5Unx9Mky4R0m-147">
          <mxGeometry relative="1" as="geometry" />
        </mxCell>
        <mxCell id="HMkb-jYR5Unx9Mky4R0m-149" value="" style="ellipse;whiteSpace=wrap;html=1;aspect=fixed;fillColor=#d5e8d4;strokeColor=#82b366;" vertex="1" parent="1">
          <mxGeometry x="-1899" y="1874" width="65" height="65" as="geometry" />
        </mxCell>
        <mxCell id="HMkb-jYR5Unx9Mky4R0m-151" style="edgeStyle=none;shape=connector;rounded=0;orthogonalLoop=1;jettySize=auto;html=1;entryX=0.5;entryY=1;entryDx=0;entryDy=0;labelBackgroundColor=default;strokeColor=default;strokeWidth=2;align=center;verticalAlign=middle;fontFamily=Helvetica;fontSize=11;fontColor=default;startArrow=none;startFill=0;endArrow=none;endFill=0;startSize=16;endSize=30;dashed=1;" edge="1" parent="1" source="HMkb-jYR5Unx9Mky4R0m-150" target="HMkb-jYR5Unx9Mky4R0m-145">
          <mxGeometry relative="1" as="geometry" />
        </mxCell>
        <mxCell id="HMkb-jYR5Unx9Mky4R0m-152" style="edgeStyle=none;shape=connector;rounded=0;orthogonalLoop=1;jettySize=auto;html=1;labelBackgroundColor=default;strokeColor=default;strokeWidth=2;align=center;verticalAlign=middle;fontFamily=Helvetica;fontSize=11;fontColor=default;startArrow=none;startFill=0;endArrow=none;endFill=0;startSize=16;endSize=30;dashed=1;" edge="1" parent="1" source="HMkb-jYR5Unx9Mky4R0m-150" target="HMkb-jYR5Unx9Mky4R0m-149">
          <mxGeometry relative="1" as="geometry" />
        </mxCell>
        <mxCell id="HMkb-jYR5Unx9Mky4R0m-150" value="" style="ellipse;whiteSpace=wrap;html=1;aspect=fixed;fillColor=#d5e8d4;strokeColor=#82b366;" vertex="1" parent="1">
          <mxGeometry x="-2310" y="1924" width="65" height="65" as="geometry" />
        </mxCell>
        <mxCell id="HMkb-jYR5Unx9Mky4R0m-166" value="" style="shape=mxgraph.signs.transportation.car_4;html=1;pointerEvents=1;fillColor=#008a00;strokeColor=#005700;verticalLabelPosition=bottom;verticalAlign=top;align=center;fontColor=#ffffff;" vertex="1" parent="1">
          <mxGeometry x="-4518" y="779" width="98" height="86" as="geometry" />
        </mxCell>
        <mxCell id="HMkb-jYR5Unx9Mky4R0m-167" value="" style="shape=mxgraph.signs.transportation.car_4;html=1;pointerEvents=1;fillColor=#1ba1e2;strokeColor=#006EAF;verticalLabelPosition=bottom;verticalAlign=top;align=center;fontColor=#ffffff;" vertex="1" parent="1">
          <mxGeometry x="-4242" y="779" width="98" height="86" as="geometry" />
        </mxCell>
        <mxCell id="HMkb-jYR5Unx9Mky4R0m-168" value="" style="shape=mxgraph.signs.transportation.car_4;html=1;pointerEvents=1;fillColor=#a20025;strokeColor=#6F0000;verticalLabelPosition=bottom;verticalAlign=top;align=center;fontColor=#ffffff;" vertex="1" parent="1">
          <mxGeometry x="-3981" y="783" width="98" height="86" as="geometry" />
        </mxCell>
        <mxCell id="HMkb-jYR5Unx9Mky4R0m-169" value="&lt;font size=&quot;1&quot; face=&quot;Times New Roman&quot;&gt;&lt;b style=&quot;font-size: 60px;&quot;&gt;car set&lt;/b&gt;&lt;/font&gt;" style="text;html=1;strokeColor=none;fillColor=none;align=left;verticalAlign=middle;whiteSpace=wrap;rounded=0;fontSize=11;fontFamily=Helvetica;fontColor=default;" vertex="1" parent="1">
          <mxGeometry x="-5100" y="732.75" width="275" height="158.5" as="geometry" />
        </mxCell>
        <mxCell id="HMkb-jYR5Unx9Mky4R0m-170" value="&lt;font size=&quot;1&quot; face=&quot;Times New Roman&quot;&gt;&lt;b style=&quot;font-size: 60px;&quot;&gt;road set&lt;/b&gt;&lt;/font&gt;" style="text;html=1;strokeColor=none;fillColor=none;align=left;verticalAlign=middle;whiteSpace=wrap;rounded=0;fontSize=11;fontFamily=Helvetica;fontColor=default;" vertex="1" parent="1">
          <mxGeometry x="-5095" y="1111" width="275" height="158.5" as="geometry" />
        </mxCell>
        <mxCell id="HMkb-jYR5Unx9Mky4R0m-171" value="" style="ellipse;whiteSpace=wrap;html=1;aspect=fixed;fillColor=#d5e8d4;strokeColor=#82b366;" vertex="1" parent="1">
          <mxGeometry x="-4518" y="1169.75" width="65" height="65" as="geometry" />
        </mxCell>
        <mxCell id="HMkb-jYR5Unx9Mky4R0m-172" value="" style="ellipse;whiteSpace=wrap;html=1;aspect=fixed;fillColor=#d5e8d4;strokeColor=#82b366;" vertex="1" parent="1">
          <mxGeometry x="-4439" y="1169.75" width="65" height="65" as="geometry" />
        </mxCell>
        <mxCell id="HMkb-jYR5Unx9Mky4R0m-173" value="" style="ellipse;whiteSpace=wrap;html=1;aspect=fixed;fillColor=#d5e8d4;strokeColor=#82b366;" vertex="1" parent="1">
          <mxGeometry x="-4359" y="1169.75" width="65" height="65" as="geometry" />
        </mxCell>
        <mxCell id="HMkb-jYR5Unx9Mky4R0m-174" value="" style="ellipse;whiteSpace=wrap;html=1;aspect=fixed;fillColor=#d5e8d4;strokeColor=#82b366;" vertex="1" parent="1">
          <mxGeometry x="-4279" y="1169.75" width="65" height="65" as="geometry" />
        </mxCell>
        <mxCell id="HMkb-jYR5Unx9Mky4R0m-175" value="" style="ellipse;whiteSpace=wrap;html=1;aspect=fixed;fillColor=#d5e8d4;strokeColor=#82b366;" vertex="1" parent="1">
          <mxGeometry x="-4199" y="1169.75" width="65" height="65" as="geometry" />
        </mxCell>
        <mxCell id="HMkb-jYR5Unx9Mky4R0m-176" value="" style="ellipse;whiteSpace=wrap;html=1;aspect=fixed;fillColor=#d5e8d4;strokeColor=#82b366;" vertex="1" parent="1">
          <mxGeometry x="-4120" y="1169.75" width="65" height="65" as="geometry" />
        </mxCell>
        <mxCell id="HMkb-jYR5Unx9Mky4R0m-177" value="" style="ellipse;whiteSpace=wrap;html=1;aspect=fixed;fillColor=#d5e8d4;strokeColor=#82b366;" vertex="1" parent="1">
          <mxGeometry x="-4040" y="1169.75" width="65" height="65" as="geometry" />
        </mxCell>
        <mxCell id="HMkb-jYR5Unx9Mky4R0m-178" value="" style="ellipse;whiteSpace=wrap;html=1;aspect=fixed;fillColor=#d5e8d4;strokeColor=#82b366;" vertex="1" parent="1">
          <mxGeometry x="-3960" y="1169.75" width="65" height="65" as="geometry" />
        </mxCell>
        <mxCell id="HMkb-jYR5Unx9Mky4R0m-179" value="&lt;font face=&quot;Times New Roman&quot;&gt;&lt;span style=&quot;font-size: 60px;&quot;&gt;&lt;b&gt;car -- road&lt;/b&gt;&lt;/span&gt;&lt;/font&gt;" style="text;html=1;strokeColor=none;fillColor=none;align=left;verticalAlign=middle;whiteSpace=wrap;rounded=0;fontSize=11;fontFamily=Helvetica;fontColor=default;" vertex="1" parent="1">
          <mxGeometry x="-5095" y="1496.37" width="275" height="158.5" as="geometry" />
        </mxCell>
        <mxCell id="HMkb-jYR5Unx9Mky4R0m-180" value="" style="shape=mxgraph.signs.transportation.car_4;html=1;pointerEvents=1;fillColor=#008a00;strokeColor=#005700;verticalLabelPosition=bottom;verticalAlign=top;align=center;fontColor=#ffffff;" vertex="1" parent="1">
          <mxGeometry x="-4513" y="1537.87" width="98" height="86" as="geometry" />
        </mxCell>
        <mxCell id="HMkb-jYR5Unx9Mky4R0m-182" value="" style="shape=mxgraph.signs.transportation.car_4;html=1;pointerEvents=1;fillColor=#1ba1e2;strokeColor=#006EAF;verticalLabelPosition=bottom;verticalAlign=top;align=center;fontColor=#ffffff;" vertex="1" parent="1">
          <mxGeometry x="-4513" y="1695.37" width="98" height="86" as="geometry" />
        </mxCell>
        <mxCell id="HMkb-jYR5Unx9Mky4R0m-183" value="" style="shape=mxgraph.signs.transportation.car_4;html=1;pointerEvents=1;fillColor=#a20025;strokeColor=#6F0000;verticalLabelPosition=bottom;verticalAlign=top;align=center;fontColor=#ffffff;" vertex="1" parent="1">
          <mxGeometry x="-4513" y="1853.37" width="98" height="86" as="geometry" />
        </mxCell>
        <mxCell id="HMkb-jYR5Unx9Mky4R0m-187" value="" style="ellipse;whiteSpace=wrap;html=1;aspect=fixed;fillColor=#d5e8d4;strokeColor=#82b366;" vertex="1" parent="1">
          <mxGeometry x="-4349.5" y="1548.37" width="65" height="65" as="geometry" />
        </mxCell>
        <mxCell id="HMkb-jYR5Unx9Mky4R0m-188" value="" style="ellipse;whiteSpace=wrap;html=1;aspect=fixed;fillColor=#d5e8d4;strokeColor=#82b366;shadow=0;dashed=1;dashPattern=8 8;opacity=35;" vertex="1" parent="1">
          <mxGeometry x="-4270.5" y="1548.37" width="65" height="65" as="geometry" />
        </mxCell>
        <mxCell id="HMkb-jYR5Unx9Mky4R0m-189" value="" style="ellipse;whiteSpace=wrap;html=1;aspect=fixed;fillColor=#d5e8d4;strokeColor=#82b366;" vertex="1" parent="1">
          <mxGeometry x="-4190.5" y="1548.37" width="65" height="65" as="geometry" />
        </mxCell>
        <mxCell id="HMkb-jYR5Unx9Mky4R0m-190" value="" style="ellipse;whiteSpace=wrap;html=1;aspect=fixed;fillColor=#d5e8d4;strokeColor=#82b366;opacity=35;dashed=1;dashPattern=8 8;" vertex="1" parent="1">
          <mxGeometry x="-4110.5" y="1548.37" width="65" height="65" as="geometry" />
        </mxCell>
        <mxCell id="HMkb-jYR5Unx9Mky4R0m-191" value="" style="ellipse;whiteSpace=wrap;html=1;aspect=fixed;fillColor=#d5e8d4;strokeColor=#82b366;opacity=35;dashed=1;dashPattern=8 8;" vertex="1" parent="1">
          <mxGeometry x="-4030.5" y="1548.37" width="65" height="65" as="geometry" />
        </mxCell>
        <mxCell id="HMkb-jYR5Unx9Mky4R0m-192" value="" style="ellipse;whiteSpace=wrap;html=1;aspect=fixed;fillColor=#d5e8d4;strokeColor=#82b366;" vertex="1" parent="1">
          <mxGeometry x="-3951.5" y="1548.37" width="65" height="65" as="geometry" />
        </mxCell>
        <mxCell id="HMkb-jYR5Unx9Mky4R0m-193" value="" style="ellipse;whiteSpace=wrap;html=1;aspect=fixed;fillColor=#d5e8d4;strokeColor=#82b366;" vertex="1" parent="1">
          <mxGeometry x="-3871.5" y="1548.37" width="65" height="65" as="geometry" />
        </mxCell>
        <mxCell id="HMkb-jYR5Unx9Mky4R0m-194" value="" style="ellipse;whiteSpace=wrap;html=1;aspect=fixed;fillColor=#d5e8d4;strokeColor=#82b366;opacity=35;dashed=1;dashPattern=8 8;" vertex="1" parent="1">
          <mxGeometry x="-3791.5" y="1548.37" width="65" height="65" as="geometry" />
        </mxCell>
        <mxCell id="HMkb-jYR5Unx9Mky4R0m-195" value="" style="ellipse;whiteSpace=wrap;html=1;aspect=fixed;fillColor=#d5e8d4;strokeColor=#82b366;" vertex="1" parent="1">
          <mxGeometry x="-4349.5" y="1705.87" width="65" height="65" as="geometry" />
        </mxCell>
        <mxCell id="HMkb-jYR5Unx9Mky4R0m-196" value="" style="ellipse;whiteSpace=wrap;html=1;aspect=fixed;fillColor=#d5e8d4;strokeColor=#82b366;" vertex="1" parent="1">
          <mxGeometry x="-4270.5" y="1705.87" width="65" height="65" as="geometry" />
        </mxCell>
        <mxCell id="HMkb-jYR5Unx9Mky4R0m-197" value="" style="ellipse;whiteSpace=wrap;html=1;aspect=fixed;fillColor=#d5e8d4;strokeColor=#82b366;dashed=1;dashPattern=8 8;opacity=35;" vertex="1" parent="1">
          <mxGeometry x="-4190.5" y="1705.87" width="65" height="65" as="geometry" />
        </mxCell>
        <mxCell id="HMkb-jYR5Unx9Mky4R0m-198" value="" style="ellipse;whiteSpace=wrap;html=1;aspect=fixed;fillColor=#d5e8d4;strokeColor=#82b366;" vertex="1" parent="1">
          <mxGeometry x="-4110.5" y="1705.87" width="65" height="65" as="geometry" />
        </mxCell>
        <mxCell id="HMkb-jYR5Unx9Mky4R0m-199" value="" style="ellipse;whiteSpace=wrap;html=1;aspect=fixed;fillColor=#d5e8d4;strokeColor=#82b366;" vertex="1" parent="1">
          <mxGeometry x="-4030.5" y="1705.87" width="65" height="65" as="geometry" />
        </mxCell>
        <mxCell id="HMkb-jYR5Unx9Mky4R0m-200" value="" style="ellipse;whiteSpace=wrap;html=1;aspect=fixed;fillColor=#d5e8d4;strokeColor=#82b366;dashed=1;dashPattern=8 8;opacity=35;" vertex="1" parent="1">
          <mxGeometry x="-3951.5" y="1705.87" width="65" height="65" as="geometry" />
        </mxCell>
        <mxCell id="HMkb-jYR5Unx9Mky4R0m-201" value="" style="ellipse;whiteSpace=wrap;html=1;aspect=fixed;fillColor=#d5e8d4;strokeColor=#82b366;dashed=1;dashPattern=8 8;opacity=35;" vertex="1" parent="1">
          <mxGeometry x="-3871.5" y="1705.87" width="65" height="65" as="geometry" />
        </mxCell>
        <mxCell id="HMkb-jYR5Unx9Mky4R0m-202" value="" style="ellipse;whiteSpace=wrap;html=1;aspect=fixed;fillColor=#d5e8d4;strokeColor=#82b366;" vertex="1" parent="1">
          <mxGeometry x="-3791.5" y="1705.87" width="65" height="65" as="geometry" />
        </mxCell>
        <mxCell id="HMkb-jYR5Unx9Mky4R0m-203" value="" style="ellipse;whiteSpace=wrap;html=1;aspect=fixed;fillColor=#d5e8d4;strokeColor=#82b366;dashed=1;dashPattern=8 8;opacity=35;" vertex="1" parent="1">
          <mxGeometry x="-4349.5" y="1863.87" width="65" height="65" as="geometry" />
        </mxCell>
        <mxCell id="HMkb-jYR5Unx9Mky4R0m-204" value="" style="ellipse;whiteSpace=wrap;html=1;aspect=fixed;fillColor=#d5e8d4;strokeColor=#82b366;" vertex="1" parent="1">
          <mxGeometry x="-4270.5" y="1863.87" width="65" height="65" as="geometry" />
        </mxCell>
        <mxCell id="HMkb-jYR5Unx9Mky4R0m-205" value="" style="ellipse;whiteSpace=wrap;html=1;aspect=fixed;fillColor=#d5e8d4;strokeColor=#82b366;" vertex="1" parent="1">
          <mxGeometry x="-4190.5" y="1863.87" width="65" height="65" as="geometry" />
        </mxCell>
        <mxCell id="HMkb-jYR5Unx9Mky4R0m-206" value="" style="ellipse;whiteSpace=wrap;html=1;aspect=fixed;fillColor=#d5e8d4;strokeColor=#82b366;dashed=1;dashPattern=8 8;opacity=35;" vertex="1" parent="1">
          <mxGeometry x="-4110.5" y="1863.87" width="65" height="65" as="geometry" />
        </mxCell>
        <mxCell id="HMkb-jYR5Unx9Mky4R0m-207" value="" style="ellipse;whiteSpace=wrap;html=1;aspect=fixed;fillColor=#d5e8d4;strokeColor=#82b366;" vertex="1" parent="1">
          <mxGeometry x="-4030.5" y="1863.87" width="65" height="65" as="geometry" />
        </mxCell>
        <mxCell id="HMkb-jYR5Unx9Mky4R0m-208" value="" style="ellipse;whiteSpace=wrap;html=1;aspect=fixed;fillColor=#d5e8d4;strokeColor=#82b366;dashed=1;dashPattern=8 8;opacity=35;" vertex="1" parent="1">
          <mxGeometry x="-3951.5" y="1863.87" width="65" height="65" as="geometry" />
        </mxCell>
        <mxCell id="HMkb-jYR5Unx9Mky4R0m-209" value="" style="ellipse;whiteSpace=wrap;html=1;aspect=fixed;fillColor=#d5e8d4;strokeColor=#82b366;dashed=1;dashPattern=8 8;opacity=35;" vertex="1" parent="1">
          <mxGeometry x="-3871.5" y="1863.87" width="65" height="65" as="geometry" />
        </mxCell>
        <mxCell id="HMkb-jYR5Unx9Mky4R0m-210" value="" style="ellipse;whiteSpace=wrap;html=1;aspect=fixed;fillColor=#d5e8d4;strokeColor=#82b366;dashed=1;dashPattern=8 8;opacity=35;" vertex="1" parent="1">
          <mxGeometry x="-3791.5" y="1863.87" width="65" height="65" as="geometry" />
        </mxCell>
        <mxCell id="HMkb-jYR5Unx9Mky4R0m-212" value="" style="curved=1;endArrow=classic;html=1;rounded=0;labelBackgroundColor=default;strokeColor=default;strokeWidth=2;align=center;verticalAlign=middle;fontFamily=Helvetica;fontSize=11;fontColor=default;startSize=16;endSize=17;shape=connector;exitX=0.5;exitY=0;exitDx=0;exitDy=0;entryX=0.5;entryY=0;entryDx=0;entryDy=0;endFill=1;" edge="1" parent="1" source="HMkb-jYR5Unx9Mky4R0m-187" target="HMkb-jYR5Unx9Mky4R0m-189">
          <mxGeometry width="50" height="50" relative="1" as="geometry">
            <mxPoint x="-4246" y="1530.37" as="sourcePoint" />
            <mxPoint x="-4196" y="1480.37" as="targetPoint" />
            <Array as="points">
              <mxPoint x="-4246" y="1480.37" />
            </Array>
          </mxGeometry>
        </mxCell>
        <mxCell id="HMkb-jYR5Unx9Mky4R0m-213" value="" style="curved=1;endArrow=classic;html=1;rounded=0;labelBackgroundColor=default;strokeColor=default;strokeWidth=2;align=center;verticalAlign=middle;fontFamily=Helvetica;fontSize=11;fontColor=default;startSize=16;endSize=17;shape=connector;exitX=0.5;exitY=0;exitDx=0;exitDy=0;entryX=0.5;entryY=0;entryDx=0;entryDy=0;endFill=1;" edge="1" parent="1" target="HMkb-jYR5Unx9Mky4R0m-192">
          <mxGeometry width="50" height="50" relative="1" as="geometry">
            <mxPoint x="-4157.5" y="1548.37" as="sourcePoint" />
            <mxPoint x="-3998.5" y="1548.37" as="targetPoint" />
            <Array as="points">
              <mxPoint x="-4049" y="1467.37" />
            </Array>
          </mxGeometry>
        </mxCell>
        <mxCell id="HMkb-jYR5Unx9Mky4R0m-214" value="" style="curved=1;endArrow=classic;html=1;rounded=0;labelBackgroundColor=default;strokeColor=default;strokeWidth=2;align=center;verticalAlign=middle;fontFamily=Helvetica;fontSize=11;fontColor=default;startSize=16;endSize=17;shape=connector;exitX=0.5;exitY=0;exitDx=0;exitDy=0;entryX=0.5;entryY=0;entryDx=0;entryDy=0;endFill=1;" edge="1" parent="1" target="HMkb-jYR5Unx9Mky4R0m-193">
          <mxGeometry width="50" height="50" relative="1" as="geometry">
            <mxPoint x="-3918.5" y="1548.37" as="sourcePoint" />
            <mxPoint x="-3759.5" y="1548.37" as="targetPoint" />
            <Array as="points">
              <mxPoint x="-3901" y="1511.37" />
            </Array>
          </mxGeometry>
        </mxCell>
        <mxCell id="HMkb-jYR5Unx9Mky4R0m-215" value="" style="curved=1;endArrow=classic;html=1;rounded=0;labelBackgroundColor=default;strokeColor=default;strokeWidth=2;align=center;verticalAlign=middle;fontFamily=Helvetica;fontSize=11;fontColor=default;startSize=16;endSize=17;shape=connector;exitX=0.5;exitY=0;exitDx=0;exitDy=0;entryX=0.5;entryY=0;entryDx=0;entryDy=0;endFill=1;" edge="1" parent="1" target="HMkb-jYR5Unx9Mky4R0m-196">
          <mxGeometry width="50" height="50" relative="1" as="geometry">
            <mxPoint x="-4321" y="1705.87" as="sourcePoint" />
            <mxPoint x="-4162" y="1705.87" as="targetPoint" />
            <Array as="points">
              <mxPoint x="-4291" y="1662.37" />
            </Array>
          </mxGeometry>
        </mxCell>
        <mxCell id="HMkb-jYR5Unx9Mky4R0m-216" value="" style="curved=1;endArrow=classic;html=1;rounded=0;labelBackgroundColor=default;strokeColor=default;strokeWidth=2;align=center;verticalAlign=middle;fontFamily=Helvetica;fontSize=11;fontColor=default;startSize=16;endSize=17;shape=connector;exitX=0.5;exitY=0;exitDx=0;exitDy=0;entryX=0.5;entryY=0;entryDx=0;entryDy=0;endFill=1;" edge="1" parent="1">
          <mxGeometry width="50" height="50" relative="1" as="geometry">
            <mxPoint x="-4237" y="1705.87" as="sourcePoint" />
            <mxPoint x="-4078" y="1705.87" as="targetPoint" />
            <Array as="points">
              <mxPoint x="-4166" y="1637.87" />
            </Array>
          </mxGeometry>
        </mxCell>
        <mxCell id="HMkb-jYR5Unx9Mky4R0m-217" value="" style="curved=1;endArrow=classic;html=1;rounded=0;labelBackgroundColor=default;strokeColor=default;strokeWidth=2;align=center;verticalAlign=middle;fontFamily=Helvetica;fontSize=11;fontColor=default;startSize=16;endSize=17;shape=connector;exitX=0.5;exitY=0;exitDx=0;exitDy=0;entryX=0.5;entryY=0;entryDx=0;entryDy=0;endFill=1;" edge="1" parent="1" target="HMkb-jYR5Unx9Mky4R0m-199">
          <mxGeometry width="50" height="50" relative="1" as="geometry">
            <mxPoint x="-4082" y="1703.37" as="sourcePoint" />
            <mxPoint x="-3923" y="1703.37" as="targetPoint" />
            <Array as="points">
              <mxPoint x="-4049" y="1667.37" />
            </Array>
          </mxGeometry>
        </mxCell>
        <mxCell id="HMkb-jYR5Unx9Mky4R0m-218" value="" style="curved=1;endArrow=classic;html=1;rounded=0;labelBackgroundColor=default;strokeColor=default;strokeWidth=2;align=center;verticalAlign=middle;fontFamily=Helvetica;fontSize=11;fontColor=default;startSize=16;endSize=17;shape=connector;exitX=0.5;exitY=0;exitDx=0;exitDy=0;entryX=0.5;entryY=0;entryDx=0;entryDy=0;endFill=1;" edge="1" parent="1" target="HMkb-jYR5Unx9Mky4R0m-202">
          <mxGeometry width="50" height="50" relative="1" as="geometry">
            <mxPoint x="-3998.5" y="1703.37" as="sourcePoint" />
            <mxPoint x="-3839.5" y="1703.37" as="targetPoint" />
            <Array as="points">
              <mxPoint x="-3889" y="1635.37" />
            </Array>
          </mxGeometry>
        </mxCell>
        <mxCell id="HMkb-jYR5Unx9Mky4R0m-219" value="" style="curved=1;endArrow=classic;html=1;rounded=0;labelBackgroundColor=default;strokeColor=default;strokeWidth=2;align=center;verticalAlign=middle;fontFamily=Helvetica;fontSize=11;fontColor=default;startSize=16;endSize=17;shape=connector;exitX=0.5;exitY=0;exitDx=0;exitDy=0;entryX=0.5;entryY=0;entryDx=0;entryDy=0;endFill=1;" edge="1" parent="1" target="HMkb-jYR5Unx9Mky4R0m-205">
          <mxGeometry width="50" height="50" relative="1" as="geometry">
            <mxPoint x="-4237" y="1863.87" as="sourcePoint" />
            <mxPoint x="-4078" y="1863.87" as="targetPoint" />
            <Array as="points">
              <mxPoint x="-4200" y="1807.37" />
            </Array>
          </mxGeometry>
        </mxCell>
        <mxCell id="HMkb-jYR5Unx9Mky4R0m-220" value="" style="curved=1;endArrow=classic;html=1;rounded=0;labelBackgroundColor=default;strokeColor=default;strokeWidth=2;align=center;verticalAlign=middle;fontFamily=Helvetica;fontSize=11;fontColor=default;startSize=16;endSize=17;shape=connector;exitX=0.5;exitY=0;exitDx=0;exitDy=0;entryX=0.5;entryY=0;entryDx=0;entryDy=0;endFill=1;" edge="1" parent="1">
          <mxGeometry width="50" height="50" relative="1" as="geometry">
            <mxPoint x="-4157.5" y="1863.87" as="sourcePoint" />
            <mxPoint x="-3998.5" y="1863.87" as="targetPoint" />
            <Array as="points">
              <mxPoint x="-4086.5" y="1795.87" />
            </Array>
          </mxGeometry>
        </mxCell>
        <mxCell id="HMkb-jYR5Unx9Mky4R0m-221" value="&lt;font face=&quot;Times New Roman&quot;&gt;&lt;span style=&quot;font-size: 60px;&quot;&gt;&lt;b&gt;history trajectory&lt;/b&gt;&lt;/span&gt;&lt;/font&gt;" style="text;html=1;strokeColor=none;fillColor=none;align=left;verticalAlign=middle;whiteSpace=wrap;rounded=0;fontSize=11;fontFamily=Helvetica;fontColor=default;" vertex="1" parent="1">
          <mxGeometry x="-5088" y="2215" width="479" height="158.5" as="geometry" />
        </mxCell>
        <mxCell id="HMkb-jYR5Unx9Mky4R0m-222" value="" style="shape=mxgraph.signs.transportation.car_4;html=1;pointerEvents=1;fillColor=#008a00;strokeColor=#005700;verticalLabelPosition=bottom;verticalAlign=top;align=center;fontColor=#ffffff;" vertex="1" parent="1">
          <mxGeometry x="-4511" y="2243" width="98" height="86" as="geometry" />
        </mxCell>
        <mxCell id="HMkb-jYR5Unx9Mky4R0m-223" value="" style="shape=mxgraph.signs.transportation.car_4;html=1;pointerEvents=1;fillColor=#1ba1e2;strokeColor=#006EAF;verticalLabelPosition=bottom;verticalAlign=top;align=center;fontColor=#ffffff;" vertex="1" parent="1">
          <mxGeometry x="-4511" y="2400.5" width="98" height="86" as="geometry" />
        </mxCell>
        <mxCell id="HMkb-jYR5Unx9Mky4R0m-224" value="" style="shape=mxgraph.signs.transportation.car_4;html=1;pointerEvents=1;fillColor=#a20025;strokeColor=#6F0000;verticalLabelPosition=bottom;verticalAlign=top;align=center;fontColor=#ffffff;" vertex="1" parent="1">
          <mxGeometry x="-4511" y="2558.5" width="98" height="86" as="geometry" />
        </mxCell>
        <mxCell id="HMkb-jYR5Unx9Mky4R0m-231" value="" style="sketch=0;outlineConnect=0;fillColor=#60a917;strokeColor=#2D7600;dashed=0;verticalLabelPosition=bottom;verticalAlign=top;align=center;html=1;fontSize=12;fontStyle=0;aspect=fixed;shape=mxgraph.aws4.location_service_routes;fontFamily=Helvetica;fontColor=#ffffff;" vertex="1" parent="1">
          <mxGeometry x="-4324" y="2239.75" width="95" height="95" as="geometry" />
        </mxCell>
        <mxCell id="HMkb-jYR5Unx9Mky4R0m-235" value="" style="sketch=0;outlineConnect=0;fillColor=#60a917;strokeColor=#2D7600;dashed=0;verticalLabelPosition=bottom;verticalAlign=top;align=center;html=1;fontSize=12;fontStyle=0;aspect=fixed;shape=mxgraph.aws4.location_service_routes;fontFamily=Helvetica;fontColor=#ffffff;" vertex="1" parent="1">
          <mxGeometry x="-4210" y="2238.5" width="95" height="95" as="geometry" />
        </mxCell>
        <mxCell id="HMkb-jYR5Unx9Mky4R0m-236" value="" style="sketch=0;outlineConnect=0;fillColor=#60a917;strokeColor=#2D7600;dashed=0;verticalLabelPosition=bottom;verticalAlign=top;align=center;html=1;fontSize=12;fontStyle=0;aspect=fixed;shape=mxgraph.aws4.location_service_routes;fontFamily=Helvetica;fontColor=#ffffff;" vertex="1" parent="1">
          <mxGeometry x="-4096" y="2239.75" width="95" height="95" as="geometry" />
        </mxCell>
        <mxCell id="HMkb-jYR5Unx9Mky4R0m-238" value="" style="sketch=0;outlineConnect=0;fillColor=#60a917;strokeColor=#2D7600;dashed=0;verticalLabelPosition=bottom;verticalAlign=top;align=center;html=1;fontSize=12;fontStyle=0;aspect=fixed;shape=mxgraph.aws4.location_service_routes;fontFamily=Helvetica;fontColor=#ffffff;" vertex="1" parent="1">
          <mxGeometry x="-3983" y="2239.75" width="95" height="95" as="geometry" />
        </mxCell>
        <mxCell id="HMkb-jYR5Unx9Mky4R0m-239" value="" style="sketch=0;outlineConnect=0;fillColor=#1ba1e2;strokeColor=#006EAF;dashed=0;verticalLabelPosition=bottom;verticalAlign=top;align=center;html=1;fontSize=12;fontStyle=0;aspect=fixed;shape=mxgraph.aws4.location_service_routes;fontFamily=Helvetica;fontColor=#ffffff;" vertex="1" parent="1">
          <mxGeometry x="-4324" y="2396.63" width="95" height="95" as="geometry" />
        </mxCell>
        <mxCell id="HMkb-jYR5Unx9Mky4R0m-240" value="" style="sketch=0;outlineConnect=0;fillColor=#1ba1e2;strokeColor=#006EAF;dashed=0;verticalLabelPosition=bottom;verticalAlign=top;align=center;html=1;fontSize=12;fontStyle=0;aspect=fixed;shape=mxgraph.aws4.location_service_routes;fontFamily=Helvetica;fontColor=#ffffff;" vertex="1" parent="1">
          <mxGeometry x="-4210" y="2395.38" width="95" height="95" as="geometry" />
        </mxCell>
        <mxCell id="HMkb-jYR5Unx9Mky4R0m-241" value="" style="sketch=0;outlineConnect=0;fillColor=#1ba1e2;strokeColor=#006EAF;dashed=0;verticalLabelPosition=bottom;verticalAlign=top;align=center;html=1;fontSize=12;fontStyle=0;aspect=fixed;shape=mxgraph.aws4.location_service_routes;fontFamily=Helvetica;fontColor=#ffffff;" vertex="1" parent="1">
          <mxGeometry x="-4096" y="2396.63" width="95" height="95" as="geometry" />
        </mxCell>
        <mxCell id="HMkb-jYR5Unx9Mky4R0m-242" value="" style="sketch=0;outlineConnect=0;fillColor=#1ba1e2;strokeColor=#006EAF;dashed=0;verticalLabelPosition=bottom;verticalAlign=top;align=center;html=1;fontSize=12;fontStyle=0;aspect=fixed;shape=mxgraph.aws4.location_service_routes;fontFamily=Helvetica;fontColor=#ffffff;" vertex="1" parent="1">
          <mxGeometry x="-3983" y="2396.63" width="95" height="95" as="geometry" />
        </mxCell>
        <mxCell id="HMkb-jYR5Unx9Mky4R0m-243" value="" style="sketch=0;outlineConnect=0;fillColor=#a20025;strokeColor=#6F0000;dashed=0;verticalLabelPosition=bottom;verticalAlign=top;align=center;html=1;fontSize=12;fontStyle=0;aspect=fixed;shape=mxgraph.aws4.location_service_routes;fontFamily=Helvetica;fontColor=#ffffff;" vertex="1" parent="1">
          <mxGeometry x="-4324" y="2554.63" width="95" height="95" as="geometry" />
        </mxCell>
        <mxCell id="HMkb-jYR5Unx9Mky4R0m-244" value="" style="sketch=0;outlineConnect=0;fillColor=#a20025;strokeColor=#6F0000;dashed=0;verticalLabelPosition=bottom;verticalAlign=top;align=center;html=1;fontSize=12;fontStyle=0;aspect=fixed;shape=mxgraph.aws4.location_service_routes;fontFamily=Helvetica;fontColor=#ffffff;" vertex="1" parent="1">
          <mxGeometry x="-4210" y="2553.38" width="95" height="95" as="geometry" />
        </mxCell>
        <mxCell id="HMkb-jYR5Unx9Mky4R0m-245" value="" style="sketch=0;outlineConnect=0;fillColor=#a20025;strokeColor=#6F0000;dashed=0;verticalLabelPosition=bottom;verticalAlign=top;align=center;html=1;fontSize=12;fontStyle=0;aspect=fixed;shape=mxgraph.aws4.location_service_routes;fontFamily=Helvetica;fontColor=#ffffff;" vertex="1" parent="1">
          <mxGeometry x="-4096" y="2554.63" width="95" height="95" as="geometry" />
        </mxCell>
        <mxCell id="HMkb-jYR5Unx9Mky4R0m-246" value="" style="sketch=0;outlineConnect=0;fillColor=#a20025;strokeColor=#6F0000;dashed=0;verticalLabelPosition=bottom;verticalAlign=top;align=center;html=1;fontSize=12;fontStyle=0;aspect=fixed;shape=mxgraph.aws4.location_service_routes;fontFamily=Helvetica;fontColor=#ffffff;" vertex="1" parent="1">
          <mxGeometry x="-3983" y="2554.63" width="95" height="95" as="geometry" />
        </mxCell>
        <mxCell id="HMkb-jYR5Unx9Mky4R0m-247" value="&lt;font size=&quot;1&quot; face=&quot;Times New Roman&quot;&gt;&lt;b style=&quot;font-size: 60px;&quot;&gt;HeteGNN&lt;/b&gt;&lt;/font&gt;" style="rounded=1;whiteSpace=wrap;html=1;fontFamily=Helvetica;fontSize=51;fillColor=#ffe6cc;strokeColor=#d79b00;" vertex="1" parent="1">
          <mxGeometry x="-2743" y="2259" width="891" height="354" as="geometry" />
        </mxCell>
        <mxCell id="HMkb-jYR5Unx9Mky4R0m-251" value="&lt;font size=&quot;1&quot; face=&quot;Times New Roman&quot;&gt;&lt;b style=&quot;font-size: 60px;&quot;&gt;HeteGNN&lt;/b&gt;&lt;/font&gt;" style="rounded=1;whiteSpace=wrap;html=1;fontFamily=Helvetica;fontSize=51;fillColor=#ffe6cc;strokeColor=#d79b00;" vertex="1" parent="1">
          <mxGeometry x="-1129" y="980.9999999999999" width="420" height="680" as="geometry" />
        </mxCell>
        <mxCell id="HMkb-jYR5Unx9Mky4R0m-252" value="" style="shape=curlyBracket;whiteSpace=wrap;html=1;rounded=1;flipH=1;labelPosition=right;verticalLabelPosition=middle;align=left;verticalAlign=middle;fontFamily=Helvetica;fontSize=11;fontColor=default;strokeWidth=3;" vertex="1" parent="1">
          <mxGeometry x="-3651" y="768" width="94" height="1185" as="geometry" />
        </mxCell>
        <mxCell id="HMkb-jYR5Unx9Mky4R0m-257" value="" style="shape=curlyBracket;whiteSpace=wrap;html=1;rounded=1;flipH=1;labelPosition=right;verticalLabelPosition=middle;align=left;verticalAlign=middle;fontFamily=Helvetica;fontSize=11;fontColor=default;strokeWidth=3;" vertex="1" parent="1">
          <mxGeometry x="-3661" y="2219" width="94" height="449" as="geometry" />
        </mxCell>
        <mxCell id="HMkb-jYR5Unx9Mky4R0m-262" value="" style="shape=flexArrow;endArrow=classic;html=1;rounded=0;labelBackgroundColor=default;strokeColor=default;strokeWidth=2;align=center;verticalAlign=middle;fontFamily=Helvetica;fontSize=11;fontColor=default;startSize=16;endSize=23.34;endWidth=96;width=46;" edge="1" parent="1">
          <mxGeometry width="50" height="50" relative="1" as="geometry">
            <mxPoint x="-2277" y="2250" as="sourcePoint" />
            <mxPoint x="-2277" y="2050" as="targetPoint" />
          </mxGeometry>
        </mxCell>
        <mxCell id="HMkb-jYR5Unx9Mky4R0m-263" value="" style="shape=flexArrow;endArrow=classic;html=1;rounded=0;labelBackgroundColor=default;strokeColor=default;strokeWidth=2;align=center;verticalAlign=middle;fontFamily=Helvetica;fontSize=11;fontColor=default;startSize=16;endSize=28.56666666666667;endWidth=160;width=60;" edge="1" parent="1">
          <mxGeometry width="50" height="50" relative="1" as="geometry">
            <mxPoint x="-3449" y="1361" as="sourcePoint" />
            <mxPoint x="-3041" y="1361" as="targetPoint" />
          </mxGeometry>
        </mxCell>
        <mxCell id="HMkb-jYR5Unx9Mky4R0m-264" value="" style="shape=flexArrow;endArrow=classic;html=1;rounded=0;labelBackgroundColor=default;strokeColor=default;strokeWidth=2;align=center;verticalAlign=middle;fontFamily=Helvetica;fontSize=11;fontColor=default;startSize=16;endSize=28.56666666666667;endWidth=160;width=60;" edge="1" parent="1">
          <mxGeometry width="50" height="50" relative="1" as="geometry">
            <mxPoint x="-3466" y="2441.21" as="sourcePoint" />
            <mxPoint x="-3058" y="2441.21" as="targetPoint" />
          </mxGeometry>
        </mxCell>
        <mxCell id="HMkb-jYR5Unx9Mky4R0m-265" value="" style="shape=flexArrow;endArrow=classic;html=1;rounded=0;labelBackgroundColor=default;strokeColor=default;strokeWidth=2;align=center;verticalAlign=middle;fontFamily=Helvetica;fontSize=11;fontColor=default;startSize=16;endSize=28.56666666666667;endWidth=160;width=60;" edge="1" parent="1">
          <mxGeometry width="50" height="50" relative="1" as="geometry">
            <mxPoint x="-1632" y="1358.83" as="sourcePoint" />
            <mxPoint x="-1224" y="1358.83" as="targetPoint" />
          </mxGeometry>
        </mxCell>
        <mxCell id="HMkb-jYR5Unx9Mky4R0m-266" value="" style="shape=flexArrow;endArrow=classic;html=1;rounded=0;labelBackgroundColor=default;strokeColor=default;strokeWidth=2;align=center;verticalAlign=middle;fontFamily=Helvetica;fontSize=11;fontColor=default;startSize=16;endSize=28.56666666666667;endWidth=160;width=60;" edge="1" parent="1">
          <mxGeometry width="50" height="50" relative="1" as="geometry">
            <mxPoint x="-1632" y="2434.33" as="sourcePoint" />
            <mxPoint x="-1224" y="2434.33" as="targetPoint" />
          </mxGeometry>
        </mxCell>
        <mxCell id="HMkb-jYR5Unx9Mky4R0m-267" value="&lt;font size=&quot;1&quot; face=&quot;Times New Roman&quot;&gt;&lt;b style=&quot;font-size: 60px;&quot;&gt;Loss 1&lt;/b&gt;&lt;/font&gt;" style="rounded=1;whiteSpace=wrap;html=1;fontFamily=Helvetica;fontSize=51;fillColor=#f8cecc;strokeColor=#b85450;" vertex="1" parent="1">
          <mxGeometry x="-1129" y="2337.2000000000003" width="381" height="213.87" as="geometry" />
        </mxCell>
        <mxCell id="HMkb-jYR5Unx9Mky4R0m-268" value="&lt;font size=&quot;1&quot; face=&quot;Times New Roman&quot;&gt;&lt;b style=&quot;font-size: 60px;&quot;&gt;Loss 2&lt;/b&gt;&lt;/font&gt;" style="rounded=1;whiteSpace=wrap;html=1;fontFamily=Helvetica;fontSize=51;fillColor=#f8cecc;strokeColor=#b85450;" vertex="1" parent="1">
          <mxGeometry x="-169" y="1248.5600000000002" width="381" height="213.87" as="geometry" />
        </mxCell>
        <mxCell id="HMkb-jYR5Unx9Mky4R0m-269" value="" style="shape=flexArrow;endArrow=classic;html=1;rounded=0;labelBackgroundColor=default;strokeColor=default;strokeWidth=2;align=center;verticalAlign=middle;fontFamily=Helvetica;fontSize=11;fontColor=default;startSize=16;endSize=28.56666666666667;endWidth=160;width=60;" edge="1" parent="1">
          <mxGeometry width="50" height="50" relative="1" as="geometry">
            <mxPoint x="-675" y="1358.83" as="sourcePoint" />
            <mxPoint x="-267" y="1358.83" as="targetPoint" />
          </mxGeometry>
        </mxCell>
      </root>
    </mxGraphModel>
  </diagram>
</mxfile>
